<svg width="72" height="49" viewBox="0 0 72 49" fill="none" xmlns="http://www.w3.org/2000/svg">
<path d="M71.8342 30.8047C70.7939 23.2369 64.8735 17.8437 58.1527 17.4958C59.8329 10.7107 63.9132 8.01426 68.8739 6.4485C69.3539 6.27465 69.2739 5.7525 69.2739 5.7525L68.4738 0.359493C68.4738 0.359493 68.3939 -0.0754395 67.7537 0.0114899C50.6319 2.09924 39.0307 16.2779 41.1909 33.5012C43.1908 45.4183 51.7513 50.0286 59.6728 48.8108C67.5937 47.4191 73.0343 39.4163 71.8341 30.8046L71.8342 30.8047ZM17.1884 17.4958C18.7886 10.7107 23.0292 8.01426 27.9096 6.4485C28.3896 6.27465 28.3096 5.7525 28.3096 5.7525L27.5895 0.359493C27.5895 0.359493 27.5095 -0.0754395 26.8693 0.0114899C9.6675 2.09924 -1.7737 16.2779 0.226509 33.5012C2.30692 45.4183 10.9476 50.0286 18.7885 48.8108C26.7093 47.4191 32.1499 39.4163 30.8697 30.8046C29.8298 23.1498 23.989 17.7567 17.1883 17.4957L17.1884 17.4958Z" fill="#C7DEE6"/>
</svg>
