<svg width="48" height="49" viewBox="0 0 48 49" fill="none" xmlns="http://www.w3.org/2000/svg">
<path d="M44.2665 38.3609C44.6781 37.948 44.9062 37.3873 44.9062 36.8066V16.1516C44.9062 15.5709 44.6781 15.0102 44.2667 14.5974C43.8567 14.1828 43.2985 13.9516 42.7188 13.9516H12.3438C11.764 13.9516 11.2057 14.1828 10.7958 14.5975C10.3843 15.0103 10.1562 15.5709 10.1562 16.1516V36.8066C10.1562 38.0176 11.1326 39.0066 12.3438 39.0066H29.2188C29.4802 39.0066 29.7334 39.0934 29.9413 39.255L29.9417 39.2553L35.6623 43.6923L36.4688 44.3177V43.2972V40.2066C36.4688 39.5408 37.0044 39.0066 37.6562 39.0066H42.7188C43.2984 39.0066 43.8566 38.7754 44.2665 38.3609ZM44.2665 38.3609C44.2662 38.3611 44.266 38.3614 44.2657 38.3617L43.9118 38.0085L44.2676 38.3598C44.2672 38.3601 44.2669 38.3605 44.2665 38.3609ZM7.78125 33.1516V32.6516H7.28125H5.59375C4.38422 32.6516 3.22444 32.1679 2.36973 31.3053L2.36911 31.3047C1.51276 30.4435 1.03125 29.2734 1.03125 28.0516V28.0189V27.9862V27.9533V27.9202V27.8871V27.8539V27.8205V27.787V27.7534V27.7196V27.6858V27.6518V27.6177V27.5835V27.5492V27.5147V27.4801V27.4455V27.4107V27.3758V27.3407V27.3056V27.2704V27.235V27.1995V27.1639V27.1282V27.0924V27.0565V27.0205V26.9843V26.9481V26.9117V26.8753V26.8387V26.802V26.7652V26.7283V26.6913V26.6542V26.617V26.5797V26.5423V26.5048V26.4672V26.4294V26.3916V26.3537V26.3157V26.2775V26.2393V26.201V26.1626V26.124V26.0854V26.0467V26.0079V25.969V25.93V25.8909V25.8517V25.8124V25.773V25.7335V25.6939V25.6543V25.6145V25.5747V25.5347V25.4947V25.4546V25.4144V25.3741V25.3337V25.2932V25.2526V25.212V25.1712V25.1304V25.0895V25.0485V25.0074V24.9663V24.925V24.8837V24.8423V24.8008V24.7592V24.7175V24.6758V24.634V24.5921V24.5501V24.508V24.4659V24.4237V24.3814V24.339V24.2966V24.254V24.2114V24.1688V24.126V24.0832V24.0403V23.9973V23.9543V23.9112V23.868V23.8247V23.7814V23.738V23.6945V23.651V23.6074V23.5637V23.52V23.4762V23.4323V23.3884V23.3444V23.3003V23.2561V23.2119V23.1677V23.1233V23.0789V23.0345V22.99V22.9454V22.9008V22.8561V22.8113V22.7665V22.7216V22.6767V22.6317V22.5866V22.5415V22.4963V22.4511V22.4058V22.3605V22.3151V22.2697V22.2242V22.1786V22.133V22.0873V22.0416V21.9959V21.9501V21.9042V21.8583V21.8123V21.7663V21.7203V21.6742V21.628V21.5818V21.5356V21.4893V21.4429V21.3966V21.3501V21.3037V21.2571V21.2106V21.164V21.1173V21.0707V21.0239V20.9772V20.9304V20.8835V20.8366V20.7897V20.7427V20.6957V20.6487V20.6016V20.5545V20.5074V20.4602V20.413V20.3657V20.3184V20.2711V20.2238V20.1764V20.129V20.0815V20.034V19.9865V19.939V19.8914V19.8438V19.7962V19.7485V19.7009V19.6532V19.6054V19.5577V19.5099V19.4621V19.4142V19.3664V19.3185V19.2706V19.2226V19.1747V19.1267V19.0787V19.0307V18.9827V18.9346V18.8865V18.8384V18.7903V18.7422V18.694V18.6459V18.5977V18.5495V18.5013V18.453V18.4048V18.3565V18.3083V18.26V18.2117V18.1634V18.115V18.0667V18.0184V17.97V17.9217V17.8733V17.8249V17.7765V17.7281V17.6797V17.6313V17.5829V17.5345V17.486V17.4376V17.3892V17.3407V17.2923V17.2438V17.1954V17.1469V17.0985V17.05V17.0016V16.9531V16.9047V16.8562V16.8077V16.7593V16.7109V16.6624V16.614V16.5655V16.5171V16.4687V16.4202V16.3718V16.3234V16.275V16.2266V16.1782V16.1298V16.0815V16.0331V15.9848V15.9364V15.8881V15.8398V15.7914V15.7432V15.6949V15.6466V15.5983V15.5501V15.5019V15.4536V15.4054V15.3573V15.3091V15.261V15.2128V15.1647V15.1166V15.0685V15.0205V14.9724V14.9244V14.8764V14.8284V14.7805V14.7326V14.6847V14.6368V14.5889V14.5411V14.4933V14.4455V14.3977V14.35V14.3023V14.2546V14.2069V14.1593V14.1117V14.0641V14.0166V13.9691V13.9216V13.8742V13.8267V13.7794V13.732V13.6847V13.6374V13.5902V13.5429V13.4958V13.4486V13.4015V13.3544V13.3074V13.2604V13.2134V13.1665V13.1196V13.0728V13.026V12.9792V12.9325V12.8858V12.8391V12.7925V12.746V12.6995V12.653V12.6066V12.5602V12.5139V12.4676V12.4213V12.3751V12.329V12.2829V12.2368V12.1908V12.1448V12.0989V12.0531V12.0072V11.9615V11.9158V11.8701V11.8245V11.779V11.7335V11.688V11.6426V11.5973V11.552V11.5068V11.4616V11.4165V11.3715V11.3265V11.2815V11.2367V11.1918V11.1471V11.1024V11.0577V11.0132V10.9686V10.9242V10.8798V10.8355V10.7912V10.747V10.7028V10.6588V10.6148V10.5708V10.5269V10.4831V10.4394V10.3957V10.3521V10.3086V10.2651V10.2217V10.1784V10.1351V10.0919V10.0488V10.0058V9.96282V9.91992V9.8771V9.83435V9.79168V9.74908V9.70656V9.66411V9.62174V9.57945V9.53723V9.49509V9.45304V9.41105V9.36915V9.32733V9.28559V9.24393V9.20235V9.16086V9.11944V9.07811V9.03686V8.9957V8.95462V8.91362V8.87271V8.83189V8.79115V8.7505V8.70994V8.66946V8.62907V8.58877V8.54856V8.50844V8.46841V8.42847V8.38862V8.34886V8.3092V8.26963V8.23015V8.19076V8.15147V8.11227V8.07317V8.03416V7.99525V7.95643V7.91771V7.87909V7.84057V7.80214V7.76382V7.72559V7.68746V7.64944V7.61151V7.57369V7.53596V7.49834V7.46082V7.42341V7.3861V7.34889V7.31179V7.27479V7.2379V7.20111V7.16443V7.12786V7.0914V7.05504V7.01879V6.98265V6.94662V6.9107V6.87489V6.8392V6.80361V6.76813V6.73277V6.69752V6.66239V6.62736V6.59245V6.55766V6.52298V6.48842V6.45397V6.41965V6.38543V6.35134V6.31736V6.2835V6.24977V6.21615V6.18265V6.14927V6.11601V6.08288V6.04987V6.01697V5.98421V5.95156C1.03125 4.72971 1.51276 3.55959 2.36911 2.69843L2.36973 2.6978C3.22444 1.83523 4.38423 1.35156 5.59375 1.35156H5.63523H5.67691H5.7188H5.76091H5.80321H5.84573H5.88845H5.93137H5.9745H6.01784H6.06137H6.1051H6.14904H6.19318H6.23751H6.28204H6.32678H6.3717H6.41682H6.46214H6.50765H6.55336H6.59925H6.64534H6.69162H6.73809H6.78475H6.83159H6.87862H6.92584H6.97325H7.02084H7.06862H7.11657H7.16471H7.21304H7.26154H7.31022H7.35908H7.40812H7.45734H7.50674H7.55631H7.60605H7.65597H7.70607H7.75633H7.80677H7.85738H7.90816H7.95911H8.01022H8.06151H8.11296H8.16458H8.21636H8.26831H8.32042H8.37269H8.42513H8.47772H8.53048H8.5834H8.63647H8.6897H8.74309H8.79664H8.85034H8.90419H8.9582H9.01237H9.06668H9.12115H9.17576H9.23053H9.28544H9.3405H9.39571H9.45107H9.50657H9.56222H9.61801H9.67394H9.73001H9.78623H9.84259H9.89908H9.95572H10.0125H10.0694H10.1265H10.1836H10.241H10.2984H10.356H10.4137H10.4716H10.5295H10.5876H10.6459H10.7042H10.7627H10.8214H10.8801H10.939H10.998H11.0571H11.1163H11.1757H11.2352H11.2948H11.3545H11.4143H11.4743H11.5344H11.5946H11.6549H11.7153H11.7758H11.8365H11.8972H11.9581H12.0191H12.0802H12.1414H12.2027H12.2641H12.3256H12.3872H12.449H12.5108H12.5727H12.6348H12.6969H12.7591H12.8215H12.8839H12.9464H13.0091H13.0718H13.1346H13.1975H13.2605H13.3236H13.3868H13.4501H13.5135H13.577H13.6405H13.7042H13.7679H13.8317H13.8956H13.9596H14.0237H14.0878H14.1521H14.2164H14.2808H14.3453H14.4098H14.4744H14.5392H14.6039H14.6688H14.7337H14.7988H14.8638H14.929H14.9942H15.0595H15.1249H15.1903H15.2558H15.3214H15.3871H15.4528H15.5185H15.5844H15.6503H15.7162H15.7823H15.8483H15.9145H15.9807H16.0469H16.1133H16.1796H16.2461H16.3126H16.3791H16.4457H16.5123H16.579H16.6458H16.7126H16.7794H16.8463H16.9133H16.9803H17.0473H17.1144H17.1815H17.2487H17.3159H17.3832H17.4505H17.5178H17.5852H17.6526H17.72H17.7875H17.8551H17.9226H17.9902H18.0578H18.1255H18.1932H18.2609H18.3287H18.3965H18.4643H18.5321H18.6H18.6679H18.7358H18.8038H18.8717H18.9397H19.0077H19.0758H19.1438H19.2119H19.28H19.3481H19.4163H19.4844H19.5526H19.6208H19.6889H19.7571H19.8254H19.8936H19.9618H20.0301H20.0983H20.1666H20.2349H20.3032H20.3715H20.4397H20.508H20.5763H20.6446H20.7129H20.7812H20.8496H20.9179H20.9862H21.0545H21.1228H21.191H21.2593H21.3276H21.3959H21.4642H21.5324H21.6007H21.6689H21.7371H21.8054H21.8736H21.9417H22.0099H22.0781H22.1462H22.2144H22.2825H22.3506H22.4187H22.4867H22.5548H22.6228H22.6908H22.7587H22.8267H22.8946H22.9625H23.0304H23.0982H23.166H23.2338H23.3016H23.3693H23.437H23.5047H23.5723H23.6399H23.7074H23.775H23.8425H23.9099H23.9773H24.0447H24.112H24.1793H24.2466H24.3138H24.381H24.4481H24.5152H24.5822H24.6492H24.7162H24.7831H24.8499H24.9167H24.9835H25.0502H25.1168H25.1834H25.2499H25.3164H25.3829H25.4492H25.5156H25.5818H25.648H25.7142H25.7802H25.8463H25.9122H25.9781H26.044H26.1097H26.1754H26.2411H26.3067H26.3722H26.4376H26.503H26.5683H26.6335H26.6987H26.7637H26.8288H26.8937H26.9586H27.0233H27.0881H27.1527H27.2172H27.2817H27.3461H27.4104H27.4747H27.5388H27.6029H27.6669H27.7308H27.7946H27.8583H27.922H27.9855H28.049H28.1124H28.1757H28.2389H28.302H28.365H28.4279H28.4907H28.5534H28.6161H28.6786H28.741H28.8034H28.8656H28.9277H28.9898H29.0517H29.1135H29.1753H29.2369H29.2984H29.3598H29.4211H29.4823H29.5434H29.6044H29.6653H29.726H29.7867H29.8472H29.9076H29.9679H30.0281H30.0882H30.1482H30.208H30.2677H30.3273H30.3868H30.4462H30.5054H30.5645H30.6235H30.6824H30.7411H30.7998H30.8583H30.9166H30.9749H31.033H31.0909H31.1488H31.2065H31.2641H31.3215H31.3789H31.436H31.4931H31.55H31.6068H31.6634H31.7199H31.7763H31.8325H31.8886H31.9445H32.0003H32.0559H32.1114H32.1668H32.222H32.2771H32.332H32.3867H32.4414H32.4958H32.5501H32.6043H32.6583H32.7122H32.7659H32.8194H32.8728H32.926H32.9791H33.032H33.0848H33.1374H33.1898H33.2421H33.2942H33.3461H33.3979H33.4495H33.501H33.5523H33.6034H33.6543H33.7051H33.7557H33.8062H33.8564H33.9065H33.9564H34.0062H34.0558H34.1052H34.1544H34.2034H34.2523H34.301H34.3495H34.3978H34.4459H34.4939H34.5417H34.5892H34.6367H34.6839H34.7309H34.7778H34.8244H34.8709H34.9172H34.9632H35.0091H35.0548H35.1004H35.1457H35.1908H35.2357H35.2805H35.325H35.3693H35.4135H35.4574H35.5011H35.5447H35.588H35.6311H35.674H35.7168H35.7593H35.8016H35.8437H35.8856H35.9273H35.9688C38.4853 1.35156 40.5312 3.40732 40.5312 5.95156V11.0516V11.5516H41.0312H42.7188C43.9283 11.5516 45.0881 12.0352 45.9428 12.8978L45.9434 12.8984C46.7998 13.7596 47.2812 14.9297 47.2812 16.1516V36.8066C47.2812 38.0284 46.7998 39.1985 45.9434 40.0597L45.9428 40.0603C45.0881 40.9229 43.9283 41.4066 42.7188 41.4066H39.3438H38.8438V41.9066V46.7516C38.8438 47.2104 38.5843 47.6277 38.1803 47.8284C37.7744 48.0292 37.2914 47.9812 36.9337 47.7032L36.9333 47.7029L28.9515 41.5115L28.8162 41.4066H28.645H12.3438C9.82718 41.4066 7.78125 39.3508 7.78125 36.8066V33.1516ZM37.6562 11.5516H38.1562V11.0516V5.95156C38.1562 4.74051 37.1799 3.75156 35.9688 3.75156H5.59375C5.014 3.75156 4.45574 3.98276 4.04582 4.39742C3.63435 4.81025 3.40625 5.3709 3.40625 5.95156V28.0516C3.40625 28.6322 3.63435 29.1929 4.04583 29.6057C4.45575 30.0204 5.01401 30.2516 5.59375 30.2516H7.28125H7.78125V29.7516V16.1516C7.78125 14.9297 8.26276 13.7596 9.11911 12.8984L9.11973 12.8978C9.97444 12.0352 11.1342 11.5516 12.3438 11.5516H37.6562ZM39.3438 34.3516H15.7188C15.0669 34.3516 14.5312 33.8173 14.5312 33.1516C14.5312 32.4858 15.0669 31.9516 15.7188 31.9516H39.3438C39.9956 31.9516 40.5312 32.4858 40.5312 33.1516C40.5312 33.8173 39.9956 34.3516 39.3438 34.3516ZM39.3438 27.5516H15.7188C15.0669 27.5516 14.5312 27.0173 14.5312 26.3516C14.5312 25.6858 15.0669 25.1516 15.7188 25.1516H39.3438C39.9956 25.1516 40.5312 25.6858 40.5312 26.3516C40.5312 27.0173 39.9956 27.5516 39.3438 27.5516ZM35.9688 20.7516H34.2812C33.6294 20.7516 33.0938 20.2173 33.0938 19.5516C33.0938 18.8858 33.6294 18.3516 34.2812 18.3516H35.9688C36.6206 18.3516 37.1562 18.8858 37.1562 19.5516C37.1562 20.2173 36.6206 20.7516 35.9688 20.7516ZM29.2188 20.7516H15.7188C15.0669 20.7516 14.5312 20.2173 14.5312 19.5516C14.5312 18.8858 15.0669 18.3516 15.7188 18.3516H29.2188C29.8706 18.3516 30.4062 18.8858 30.4062 19.5516C30.4062 20.2173 29.8706 20.7516 29.2188 20.7516Z" fill="#2E8096" stroke="white"/>
</svg>
