<svg width="49" height="42" viewBox="0 0 49 42" fill="none" xmlns="http://www.w3.org/2000/svg">
<mask id="path-1-inside-1_89_6255" fill="white">
<path d="M16.9366 9.62779C16.5423 9.22891 17.1418 8.6224 17.5361 9.02129L21.1269 12.6538L24.7177 9.02129C25.112 8.6224 25.7115 9.22891 25.3172 9.62779L21.7264 13.2604L25.3172 16.8929C25.7115 17.2918 25.1119 17.8983 24.7176 17.4994L21.1269 13.8669L17.5361 17.4994C17.1418 17.8983 16.5423 17.2918 16.9366 16.8929L20.5274 13.2604L16.9366 9.62779ZM44.0503 8.22461C43.6086 8.56578 43.0952 7.88554 43.5369 7.54437L46.5707 5.20637C47.2178 4.70768 46.9835 4.84555 46.2269 4.84873C41.9315 4.867 39.3845 5.85329 37.8915 7.57089C36.2164 9.4978 35.8205 12.3987 35.7509 15.9068C35.7095 17.9892 35.7705 20.0558 35.8295 22.0579C36.027 28.7549 36.2035 34.7424 32.508 38.6186C27.0907 44.3009 16.3576 42.6047 13.9611 34.2892C12.1631 28.0506 15.958 24.4979 21.3457 22.4229C25.6432 20.7678 30.6113 18.0929 30.4399 12.6544C30.2605 6.96233 24.5824 3.06786 19.2013 4.96286C14.7083 6.54511 11.0161 11.147 9.32245 15.5142C9.11986 16.0387 8.33151 15.7271 8.5341 15.2025C10.3197 10.5984 14.1921 5.82138 18.9231 4.15529C24.8424 2.07076 31.0868 6.35522 31.2845 12.6276C31.4696 18.4988 26.3257 21.4219 21.6472 23.2237C16.7083 25.1259 13.1074 28.2733 14.7726 34.0513C16.9846 41.7265 26.9287 43.2384 31.8985 38.0255C35.3483 34.4071 35.1767 28.589 34.9849 22.0813C34.9256 20.0713 34.8644 17.9965 34.9062 15.89C34.9795 12.1972 35.4127 9.12444 37.2555 7.0046C38.8597 5.1592 41.4967 4.07675 45.84 3.99786C46.8052 3.98036 46.7335 4.08369 45.9645 3.4455L43.8709 1.70795C43.4423 1.35138 43.9789 0.691244 44.4075 1.04782L48.0342 4.05771C48.5994 4.50558 48.554 4.75381 47.9937 5.18561L44.0503 8.22461ZM10.6391 18.8184C12.948 21.1542 12.948 24.9879 10.6391 27.3237C8.3302 29.6594 4.54054 29.6594 2.23166 27.3237C-0.0772198 24.9879 -0.0772198 21.1542 2.23166 18.8184C4.54054 16.4827 8.3302 16.4827 10.6391 18.8184ZM10.0395 19.4249C8.06006 17.4224 4.81068 17.4224 2.83119 19.4249C0.851699 21.4275 0.851699 24.7147 2.83119 26.7172C4.81068 28.7197 8.06006 28.7197 10.0395 26.7172C12.019 24.7147 12.019 21.4275 10.0395 19.4249ZM27.5815 27.7575C27.9758 27.3586 28.5753 27.9651 28.181 28.364L24.5903 31.9966L28.181 35.6291C28.5753 36.028 27.9758 36.6345 27.5815 36.2356L23.9907 32.6031L20.4 36.2356C20.0057 36.6345 19.4062 36.028 19.8005 35.6291L23.3912 31.9966L19.8004 28.364C19.4061 27.9651 20.0056 27.3586 20.4 27.7575L23.9907 31.3901L27.5815 27.7575ZM47.7715 27.4766C48.1658 27.0777 48.7654 27.6842 48.3711 28.0831L44.7803 31.7157L48.371 35.3482C48.7653 35.7471 48.1658 36.3536 47.7715 35.9547L44.1808 32.3222L40.59 35.9547C40.1957 36.3536 39.5962 35.7471 39.9905 35.3482L43.5812 31.7157L39.9905 28.0831C39.5962 27.6842 40.1957 27.0777 40.59 27.4766L44.1808 31.1092L47.7715 27.4766ZM47.7661 14.1561C48.1604 13.7572 48.7599 14.3637 48.3656 14.7626L44.7749 18.3952L48.3656 22.0277C48.7599 22.4266 48.1604 23.0331 47.7661 22.6342L44.1753 19.0017L40.5846 22.6342C40.1903 23.0331 39.5908 22.4266 39.9851 22.0277L43.5758 18.3952L39.9851 14.7626C39.5907 14.3637 40.1903 13.7572 40.5846 14.1561L44.1753 17.7887L47.7661 14.1561Z"/>
</mask>
<path d="M16.9366 9.62779C16.5423 9.22891 17.1418 8.6224 17.5361 9.02129L21.1269 12.6538L24.7177 9.02129C25.112 8.6224 25.7115 9.22891 25.3172 9.62779L21.7264 13.2604L25.3172 16.8929C25.7115 17.2918 25.1119 17.8983 24.7176 17.4994L21.1269 13.8669L17.5361 17.4994C17.1418 17.8983 16.5423 17.2918 16.9366 16.8929L20.5274 13.2604L16.9366 9.62779ZM44.0503 8.22461C43.6086 8.56578 43.0952 7.88554 43.5369 7.54437L46.5707 5.20637C47.2178 4.70768 46.9835 4.84555 46.2269 4.84873C41.9315 4.867 39.3845 5.85329 37.8915 7.57089C36.2164 9.4978 35.8205 12.3987 35.7509 15.9068C35.7095 17.9892 35.7705 20.0558 35.8295 22.0579C36.027 28.7549 36.2035 34.7424 32.508 38.6186C27.0907 44.3009 16.3576 42.6047 13.9611 34.2892C12.1631 28.0506 15.958 24.4979 21.3457 22.4229C25.6432 20.7678 30.6113 18.0929 30.4399 12.6544C30.2605 6.96233 24.5824 3.06786 19.2013 4.96286C14.7083 6.54511 11.0161 11.147 9.32245 15.5142C9.11986 16.0387 8.33151 15.7271 8.5341 15.2025C10.3197 10.5984 14.1921 5.82138 18.9231 4.15529C24.8424 2.07076 31.0868 6.35522 31.2845 12.6276C31.4696 18.4988 26.3257 21.4219 21.6472 23.2237C16.7083 25.1259 13.1074 28.2733 14.7726 34.0513C16.9846 41.7265 26.9287 43.2384 31.8985 38.0255C35.3483 34.4071 35.1767 28.589 34.9849 22.0813C34.9256 20.0713 34.8644 17.9965 34.9062 15.89C34.9795 12.1972 35.4127 9.12444 37.2555 7.0046C38.8597 5.1592 41.4967 4.07675 45.84 3.99786C46.8052 3.98036 46.7335 4.08369 45.9645 3.4455L43.8709 1.70795C43.4423 1.35138 43.9789 0.691244 44.4075 1.04782L48.0342 4.05771C48.5994 4.50558 48.554 4.75381 47.9937 5.18561L44.0503 8.22461ZM10.6391 18.8184C12.948 21.1542 12.948 24.9879 10.6391 27.3237C8.3302 29.6594 4.54054 29.6594 2.23166 27.3237C-0.0772198 24.9879 -0.0772198 21.1542 2.23166 18.8184C4.54054 16.4827 8.3302 16.4827 10.6391 18.8184ZM10.0395 19.4249C8.06006 17.4224 4.81068 17.4224 2.83119 19.4249C0.851699 21.4275 0.851699 24.7147 2.83119 26.7172C4.81068 28.7197 8.06006 28.7197 10.0395 26.7172C12.019 24.7147 12.019 21.4275 10.0395 19.4249ZM27.5815 27.7575C27.9758 27.3586 28.5753 27.9651 28.181 28.364L24.5903 31.9966L28.181 35.6291C28.5753 36.028 27.9758 36.6345 27.5815 36.2356L23.9907 32.6031L20.4 36.2356C20.0057 36.6345 19.4062 36.028 19.8005 35.6291L23.3912 31.9966L19.8004 28.364C19.4061 27.9651 20.0056 27.3586 20.4 27.7575L23.9907 31.3901L27.5815 27.7575ZM47.7715 27.4766C48.1658 27.0777 48.7654 27.6842 48.3711 28.0831L44.7803 31.7157L48.371 35.3482C48.7653 35.7471 48.1658 36.3536 47.7715 35.9547L44.1808 32.3222L40.59 35.9547C40.1957 36.3536 39.5962 35.7471 39.9905 35.3482L43.5812 31.7157L39.9905 28.0831C39.5962 27.6842 40.1957 27.0777 40.59 27.4766L44.1808 31.1092L47.7715 27.4766ZM47.7661 14.1561C48.1604 13.7572 48.7599 14.3637 48.3656 14.7626L44.7749 18.3952L48.3656 22.0277C48.7599 22.4266 48.1604 23.0331 47.7661 22.6342L44.1753 19.0017L40.5846 22.6342C40.1903 23.0331 39.5908 22.4266 39.9851 22.0277L43.5758 18.3952L39.9851 14.7626C39.5907 14.3637 40.1903 13.7572 40.5846 14.1561L44.1753 17.7887L47.7661 14.1561Z" fill="#2E8096"/>
<path d="M16.9366 9.62779L18.5012 8.08119L18.5012 8.08116L16.9366 9.62779ZM17.5361 9.02129L19.1007 7.47468L19.1007 7.47468L17.5361 9.02129ZM21.1269 12.6538L19.5623 14.2005L21.1269 15.7833L22.6915 14.2005L21.1269 12.6538ZM24.7177 9.02129L26.2823 10.5679L26.2823 10.5679L24.7177 9.02129ZM25.3172 9.62779L23.7526 8.08116L23.7526 8.08118L25.3172 9.62779ZM21.7264 13.2604L20.1618 11.7138L18.633 13.2604L20.1618 14.807L21.7264 13.2604ZM25.3172 16.8929L23.7526 18.4395L23.7526 18.4395L25.3172 16.8929ZM24.7176 17.4994L26.2823 15.9528L26.2822 15.9528L24.7176 17.4994ZM21.1269 13.8669L22.6915 12.3203L21.1269 10.7374L19.5623 12.3203L21.1269 13.8669ZM17.5361 17.4994L15.9715 15.9528L17.5361 17.4994ZM16.9366 16.8929L18.5012 18.4395L16.9366 16.8929ZM20.5274 13.2604L22.092 14.807L23.6208 13.2604L22.092 11.7138L20.5274 13.2604ZM44.0503 8.22461L42.7074 6.48204L42.7055 6.48353L44.0503 8.22461ZM43.5369 7.54437L42.194 5.8018L42.192 5.80331L43.5369 7.54437ZM46.5707 5.20637L45.2278 3.46379L45.2278 3.4638L46.5707 5.20637ZM46.2269 4.84873L46.2176 2.64875L46.2175 2.64875L46.2269 4.84873ZM37.8915 7.57089L36.2311 6.12755V6.12756L37.8915 7.57089ZM35.7509 15.9068L37.9504 15.9504V15.9504L35.7509 15.9068ZM35.8295 22.0579L38.0285 21.993V21.993L35.8295 22.0579ZM32.508 38.6186L30.9157 37.1005L30.9157 37.1005L32.508 38.6186ZM13.9611 34.2892L11.8471 34.8985L11.8471 34.8985L13.9611 34.2892ZM21.3457 22.4229L20.5551 20.3699L20.5551 20.3699L21.3457 22.4229ZM30.4399 12.6544L32.6388 12.5851V12.5851L30.4399 12.6544ZM19.2013 4.96286L19.9321 7.03794L19.9321 7.03794L19.2013 4.96286ZM9.32245 15.5142L7.27129 14.7187L7.2702 14.7215L9.32245 15.5142ZM8.5341 15.2025L6.48295 14.4071L6.48186 14.4099L8.5341 15.2025ZM18.9231 4.15529L18.1923 2.08021L18.1923 2.08021L18.9231 4.15529ZM31.2845 12.6276L29.0856 12.6969V12.6969L31.2845 12.6276ZM21.6472 23.2237L20.8565 21.1707L20.8565 21.1707L21.6472 23.2237ZM14.7726 34.0513L12.6586 34.6606L12.6586 34.6606L14.7726 34.0513ZM31.8985 38.0255L30.3062 36.5074H30.3062L31.8985 38.0255ZM34.9849 22.0813L37.1839 22.0165V22.0165L34.9849 22.0813ZM34.9062 15.89L32.7066 15.8464V15.8464L34.9062 15.89ZM37.2555 7.0046L38.9158 8.44793L38.9158 8.44793L37.2555 7.0046ZM45.84 3.99786L45.8001 1.79822L45.8 1.79822L45.84 3.99786ZM45.9645 3.4455L44.5595 5.13841L44.5595 5.13842L45.9645 3.4455ZM43.8709 1.70795L42.4639 3.39922L42.4659 3.40086L43.8709 1.70795ZM44.4075 1.04782L43.0005 2.73909L43.0025 2.74074L44.4075 1.04782ZM48.0342 4.05771L46.6292 5.75062L46.6484 5.76654L46.6679 5.78201L48.0342 4.05771ZM47.9937 5.18561L46.6508 3.44303L46.6508 3.44304L47.9937 5.18561ZM10.0395 19.4249L8.47493 20.9715L8.47494 20.9716L10.0395 19.4249ZM2.83119 19.4249L4.3958 20.9716L4.3958 20.9715L2.83119 19.4249ZM2.83119 26.7172L4.3958 25.1706L4.3958 25.1706L2.83119 26.7172ZM10.0395 26.7172L8.47494 25.1706L8.47493 25.1706L10.0395 26.7172ZM27.5815 27.7575L29.1461 29.3041L29.1461 29.3041L27.5815 27.7575ZM28.181 28.364L29.7456 29.9106L29.7456 29.9106L28.181 28.364ZM24.5903 31.9966L23.0256 30.4499L21.4968 31.9966L23.0256 33.5432L24.5903 31.9966ZM28.181 35.6291L29.7456 34.0825L29.7456 34.0825L28.181 35.6291ZM27.5815 36.2356L29.1461 34.689L29.1461 34.689L27.5815 36.2356ZM23.9907 32.6031L25.5553 31.0564L23.9907 29.4736L22.4261 31.0565L23.9907 32.6031ZM20.4 36.2356L21.9646 37.7822L21.9646 37.7822L20.4 36.2356ZM19.8005 35.6291L18.2359 34.0825L19.8005 35.6291ZM23.3912 31.9966L24.9558 33.5432L26.4846 31.9966L24.9558 30.4499L23.3912 31.9966ZM19.8004 28.364L18.2358 29.9106L18.2358 29.9106L19.8004 28.364ZM20.4 27.7575L21.9646 26.2109L21.9645 26.2109L20.4 27.7575ZM23.9907 31.3901L22.4261 32.9367L23.9907 34.5195L25.5553 32.9367L23.9907 31.3901ZM47.7715 27.4766L46.2069 25.93L46.2069 25.93L47.7715 27.4766ZM48.3711 28.0831L49.9357 29.6298L49.9357 29.6297L48.3711 28.0831ZM44.7803 31.7157L43.2157 30.1691L41.6869 31.7157L43.2157 33.2623L44.7803 31.7157ZM48.371 35.3482L46.8064 36.8948L48.371 35.3482ZM47.7715 35.9547L49.3361 34.4081L47.7715 35.9547ZM44.1808 32.3222L45.7454 30.7756L44.1808 29.1928L42.6162 30.7756L44.1808 32.3222ZM40.59 35.9547L39.0254 34.4081L39.0254 34.4081L40.59 35.9547ZM39.9905 35.3482L41.5551 36.8949L41.5551 36.8948L39.9905 35.3482ZM43.5812 31.7157L45.1458 33.2623L46.6747 31.7157L45.1458 30.1691L43.5812 31.7157ZM39.9905 28.0831L38.4259 29.6298L38.4259 29.6298L39.9905 28.0831ZM40.59 27.4766L39.0254 29.0232L40.59 27.4766ZM44.1808 31.1092L42.6162 32.6558L44.1808 34.2386L45.7454 32.6558L44.1808 31.1092ZM47.7661 14.1561L49.3307 15.7027L47.7661 14.1561ZM48.3656 14.7626L49.9302 16.3092V16.3092L48.3656 14.7626ZM44.7749 18.3952L43.2103 16.8486L41.6814 18.3952L43.2103 19.9418L44.7749 18.3952ZM48.3656 22.0277L46.801 23.5743V23.5743L48.3656 22.0277ZM47.7661 22.6342L46.2015 24.1808V24.1808L47.7661 22.6342ZM44.1753 19.0017L45.7399 17.4551L44.1753 15.8723L42.6107 17.4551L44.1753 19.0017ZM40.5846 22.6342L39.02 21.0876L39.02 21.0876L40.5846 22.6342ZM39.9851 22.0277L41.5497 23.5744L41.5497 23.5743L39.9851 22.0277ZM43.5758 18.3952L45.1404 19.9418L46.6692 18.3952L45.1404 16.8486L43.5758 18.3952ZM39.9851 14.7626L41.5497 13.216L41.5496 13.216L39.9851 14.7626ZM40.5846 14.1561L39.0199 15.7027L39.02 15.7027L40.5846 14.1561ZM44.1753 17.7887L42.6107 19.3353L44.1753 20.9181L45.7399 19.3353L44.1753 17.7887ZM18.5012 8.08116C18.8293 8.41307 19.039 8.90916 19.0039 9.45095C18.9723 9.93787 18.7545 10.3199 18.5053 10.572C18.2566 10.8235 17.8695 11.0535 17.3663 11.0869C16.8046 11.1241 16.3003 10.9005 15.9715 10.5679L19.1007 7.47468C18.5748 6.94262 17.8477 6.64524 17.075 6.6965C16.3609 6.74388 15.7746 7.07558 15.376 7.47877C14.9769 7.88251 14.6585 8.46599 14.6131 9.16636C14.5641 9.92158 14.8468 10.6431 15.372 11.1744L18.5012 8.08116ZM15.9715 10.5679L19.5623 14.2005L22.6915 11.1072L19.1007 7.47468L15.9715 10.5679ZM22.6915 14.2005L26.2823 10.5679L23.1531 7.47468L19.5623 11.1072L22.6915 14.2005ZM26.2823 10.5679C25.9535 10.9005 25.4492 11.1241 24.8875 11.0869C24.3843 11.0535 23.9972 10.8235 23.7486 10.572C23.4993 10.3199 23.2815 9.93788 23.2499 9.45096C23.2148 8.90917 23.4245 8.41307 23.7526 8.08116L26.8818 11.1744C27.407 10.6431 27.6897 9.92157 27.6407 9.16634C27.5953 8.46598 27.2769 7.88249 26.8778 7.47876C26.4792 7.07558 25.8929 6.74388 25.1788 6.6965C24.4061 6.64524 23.679 6.94263 23.153 7.4747L26.2823 10.5679ZM23.7526 8.08118L20.1618 11.7138L23.291 14.807L26.8818 11.1744L23.7526 8.08118ZM20.1618 14.807L23.7526 18.4395L26.8818 15.3463L23.291 11.7138L20.1618 14.807ZM23.7526 18.4395C23.4245 18.1076 23.2148 17.6115 23.2499 17.0697C23.2815 16.5828 23.4993 16.2008 23.7485 15.9487C23.9972 15.6971 24.3843 15.4672 24.8875 15.4338C25.4492 15.3966 25.9535 15.6202 26.2823 15.9528L23.153 19.046C23.6789 19.5781 24.406 19.8754 25.1787 19.8242C25.8929 19.7768 26.4792 19.4451 26.8777 19.0419C27.2768 18.6382 27.5953 18.0547 27.6407 17.3544C27.6896 16.5991 27.407 15.8776 26.8818 15.3463L23.7526 18.4395ZM26.2822 15.9528L22.6915 12.3203L19.5623 15.4135L23.153 19.046L26.2822 15.9528ZM19.5623 12.3203L15.9715 15.9528L19.1008 19.046L22.6915 15.4135L19.5623 12.3203ZM15.9715 15.9528C16.3003 15.6202 16.8046 15.3966 17.3663 15.4338C17.8695 15.4672 18.2566 15.6971 18.5053 15.9487C18.7545 16.2008 18.9723 16.5828 19.0039 17.0697C19.039 17.6115 18.8293 18.1076 18.5012 18.4395L15.372 15.3463C14.8468 15.8776 14.5642 16.5991 14.6131 17.3543C14.6585 18.0547 14.977 18.6382 15.376 19.0419C15.7746 19.4451 16.3609 19.7768 17.0751 19.8242C17.8477 19.8754 18.5748 19.5781 19.1008 19.046L15.9715 15.9528ZM18.5012 18.4395L22.092 14.807L18.9628 11.7138L15.372 15.3463L18.5012 18.4395ZM22.092 11.7138L18.5012 8.08119L15.372 11.1744L18.9628 14.807L22.092 11.7138ZM42.7055 6.48353C43.0788 6.19515 43.6109 6.04208 44.1623 6.15481C44.6555 6.25563 45.0067 6.53464 45.2183 6.81503C45.4304 7.09603 45.5962 7.50195 45.5638 7.98855C45.5278 8.53083 45.2543 8.99766 44.8818 9.28543L42.192 5.80331C41.5986 6.26167 41.2238 6.94147 41.1735 7.69659C41.127 8.39603 41.3659 9.01465 41.7064 9.46571C42.0464 9.91615 42.5812 10.3226 43.281 10.4657C44.0391 10.6206 44.801 10.4247 45.3952 9.96569L42.7055 6.48353ZM44.8798 9.28694L47.9136 6.94894L45.2278 3.4638L42.194 5.8018L44.8798 9.28694ZM47.9136 6.94894C48.0353 6.85513 48.2718 6.67531 48.4512 6.49604C48.5071 6.44022 48.5988 6.34434 48.6941 6.21643C48.774 6.10919 48.9564 5.84936 49.0634 5.4696C49.1865 5.03233 49.2229 4.3532 48.8135 3.69312C48.4519 3.11024 47.9401 2.87156 47.7069 2.78291C47.2862 2.62299 46.8997 2.62962 46.8686 2.6292C46.7537 2.62765 46.6416 2.63301 46.5871 2.63559C46.4445 2.64231 46.3473 2.6482 46.2176 2.64875L46.2361 7.04871C46.4847 7.04767 46.7005 7.03513 46.7945 7.03069C46.8582 7.02769 46.8453 7.02929 46.809 7.0288C46.7882 7.02852 46.7247 7.02732 46.6382 7.01735C46.5675 7.00921 46.3765 6.98439 46.1435 6.89579C45.9283 6.81401 45.429 6.58415 45.0744 6.01243C44.6719 5.36352 44.7096 4.6979 44.8281 4.27684C44.9305 3.9133 45.1025 3.67239 45.1661 3.58718C45.245 3.48129 45.3142 3.41051 45.3415 3.38328C45.4065 3.31831 45.4296 3.30826 45.2278 3.46379L47.9136 6.94894ZM46.2175 2.64875C41.6507 2.66817 38.3296 3.71347 36.2311 6.12755L39.5518 9.01422C40.4394 7.99312 42.2124 7.06582 46.2362 7.04871L46.2175 2.64875ZM36.2311 6.12756C33.9805 8.71655 33.6203 12.3839 33.5513 15.8631L37.9504 15.9504C38.0206 12.4136 38.4523 10.2791 39.5518 9.01422L36.2311 6.12756ZM33.5513 15.8631C33.5087 18.0086 33.5717 20.1289 33.6305 22.1227L38.0285 21.993C37.9693 19.9826 37.9104 17.9698 37.9504 15.9504L33.5513 15.8631ZM33.6305 22.1227C33.7306 25.5201 33.8122 28.4932 33.4497 31.0921C33.0931 33.6491 32.3327 35.6143 30.9157 37.1005L34.1003 40.1367C36.3789 37.7467 37.3779 34.78 37.8075 31.6999C38.2313 28.6619 38.1258 25.2927 38.0285 21.993L33.6305 22.1227ZM30.9157 37.1005C28.7932 39.3269 25.5558 40.1678 22.5452 39.5482C19.5769 38.9374 17.0177 36.9507 16.075 33.68L11.8471 34.8985C13.301 39.9433 17.3066 42.9624 21.6583 43.8579C25.9677 44.7448 30.8056 43.5926 34.1003 40.1367L30.9157 37.1005ZM16.075 33.68C15.3415 31.1348 15.7848 29.4033 16.7399 28.0861C17.7793 26.6525 19.622 25.4443 22.1364 24.4759L20.5551 20.3699C17.6817 21.4765 14.9331 23.0821 13.1777 25.5033C11.3378 28.0409 10.7827 31.2051 11.8471 34.8985L16.075 33.68ZM22.1364 24.4759C24.3478 23.6242 26.9658 22.4285 29.0265 20.605C31.1546 18.7219 32.7496 16.1029 32.6388 12.5851L28.241 12.7237C28.3015 14.6443 27.4982 16.0821 26.1107 17.3098C24.6559 18.5972 22.6411 19.5664 20.5551 20.3699L22.1364 24.4759ZM32.6388 12.5851C32.4125 5.40652 25.256 0.498207 18.4706 2.88777L19.9321 7.03794C23.9088 5.63751 28.1084 8.51815 28.241 12.7237L32.6388 12.5851ZM18.4706 2.88777C13.1731 4.75331 9.10838 9.98168 7.2713 14.7187L11.3736 16.3096C12.9238 12.3123 16.2435 8.33691 19.9321 7.03794L18.4706 2.88777ZM7.2702 14.7215C7.43613 14.2919 7.80285 13.8874 8.32857 13.6948C8.80139 13.5216 9.25071 13.5736 9.58506 13.7058C9.91987 13.8381 10.2765 14.1046 10.5011 14.5427C10.7503 15.0289 10.7521 15.5661 10.5863 15.9952L6.48186 14.4099C6.21483 15.1012 6.23914 15.8741 6.58555 16.5498C6.90732 17.1776 7.43571 17.5875 7.9676 17.7977C8.49904 18.0078 9.17077 18.0722 9.84206 17.8263C10.5662 17.561 11.1075 16.9987 11.3747 16.3068L7.2702 14.7215ZM10.5853 15.998C12.2232 11.7744 15.7192 7.61602 19.6539 6.23038L18.1923 2.08021C12.665 4.02675 8.41614 9.42228 6.48295 14.4071L10.5853 15.998ZM19.6539 6.23038C24.1664 4.64124 28.9347 7.90853 29.0856 12.6969L33.4834 12.5583C33.2389 4.80191 25.5183 -0.499732 18.1923 2.08021L19.6539 6.23038ZM29.0856 12.6969C29.1541 14.8689 28.2774 16.4815 26.8049 17.8283C25.2643 19.2374 23.1175 20.3 20.8565 21.1707L22.4378 25.2767C24.8554 24.3457 27.6198 23.0458 29.7745 21.0751C31.9973 19.042 33.6 16.2574 33.4834 12.5583L29.0856 12.6969ZM20.8565 21.1707C18.2319 22.1815 15.6456 23.6332 13.973 25.8645C12.2041 28.2244 11.6572 31.1856 12.6586 34.6606L16.8866 33.4421C16.2228 31.139 16.6438 29.6375 17.4937 28.5036C18.44 27.2411 20.1236 26.168 22.4378 25.2767L20.8565 21.1707ZM12.6586 34.6606C14.0224 39.3926 17.7919 42.2023 21.8644 43.0276C25.892 43.8439 30.4191 42.7655 33.4908 39.5436L30.3062 36.5074C28.4081 38.4984 25.4782 39.2705 22.7384 38.7153C20.0433 38.1691 17.7348 36.3853 16.8866 33.4421L12.6586 34.6606ZM33.4908 39.5436C35.6593 37.2691 36.5906 34.3945 36.9878 31.4289C37.3807 28.4958 37.2784 25.2221 37.1839 22.0165L32.7858 22.1462C32.8832 25.4482 32.9626 28.3374 32.6268 30.8448C32.2953 33.3197 31.5876 35.1634 30.3062 36.5074L33.4908 39.5436ZM37.1839 22.0165C37.1244 19.9984 37.0652 17.9772 37.1058 15.9337L32.7066 15.8464C32.6636 18.0158 32.7268 20.1441 32.7858 22.1462L37.1839 22.0165ZM37.1058 15.9337C37.1791 12.2405 37.6405 9.91501 38.9158 8.44793L35.5951 5.56126C33.1849 8.33387 32.7799 12.1538 32.7066 15.8464L37.1058 15.9337ZM38.9158 8.44793C39.9458 7.26306 41.8524 6.27065 45.8799 6.1975L45.8 1.79822C41.141 1.88284 37.7735 3.05534 35.5951 5.56126L38.9158 8.44793ZM45.8799 6.1975C45.9813 6.19566 46.0707 6.19537 46.1564 6.19527C46.2298 6.1952 46.3364 6.19542 46.4264 6.19331C46.4801 6.19205 46.7033 6.18893 46.9473 6.13901C47.0597 6.11602 47.3703 6.04738 47.7059 5.83764C48.0998 5.59139 48.6368 5.06686 48.7375 4.21174C48.8222 3.49206 48.5358 2.96923 48.425 2.78704C48.2943 2.57184 48.1546 2.42376 48.0927 2.36025C47.9647 2.22903 47.8316 2.12255 47.7849 2.08497C47.6181 1.95068 47.556 1.90734 47.3695 1.75258L44.5595 5.13842C44.7575 5.30275 44.9928 5.48582 45.0255 5.51219C45.0786 5.55494 45.0208 5.51236 44.9424 5.43196C44.9052 5.39387 44.7839 5.26793 44.6649 5.07204C44.5659 4.90915 44.2846 4.40278 44.3677 3.69713C44.4667 2.85604 44.9952 2.34312 45.3738 2.10648C45.694 1.90634 45.9823 1.8453 46.0653 1.82833C46.2504 1.79044 46.3864 1.79303 46.3231 1.79452C46.2961 1.79515 46.256 1.79516 46.1516 1.79528C46.0594 1.79538 45.9399 1.79569 45.8001 1.79822L45.8799 6.1975ZM47.3695 1.75258L45.2759 0.0150331L42.4659 3.40086L44.5595 5.13841L47.3695 1.75258ZM45.2779 0.0166745C45.6394 0.317424 45.8959 0.793439 45.9126 1.33667C45.9276 1.8243 45.7474 2.22445 45.5249 2.49815C45.3029 2.77124 44.9413 3.03762 44.4443 3.12046C43.8888 3.21304 43.3628 3.04048 43.0005 2.73909L45.8145 -0.643444C45.2379 -1.12312 44.4841 -1.34688 43.7209 -1.21967C43.0161 -1.10221 42.4668 -0.715366 42.1106 -0.277241C41.754 0.161486 41.4932 0.771246 41.5147 1.47179C41.5379 2.22794 41.8881 2.92018 42.4639 3.39922L45.2779 0.0166745ZM43.0025 2.74074L46.6292 5.75062L49.4392 2.3648L45.8125 -0.645089L43.0025 2.74074ZM46.6679 5.78201C46.7454 5.84344 46.664 5.79353 46.5553 5.64146C46.4271 5.46207 46.2049 5.057 46.2403 4.49065C46.2739 3.9525 46.5206 3.61053 46.6111 3.49965C46.6958 3.39572 46.7441 3.37108 46.6508 3.44303L49.3366 6.92818C49.5234 6.78424 49.7875 6.56664 50.0207 6.28073C50.2596 5.98787 50.5874 5.47489 50.6317 4.76473C50.6778 4.02636 50.3961 3.44827 50.1349 3.08288C49.8933 2.7448 49.6056 2.49592 49.4005 2.33341L46.6679 5.78201ZM46.6508 3.44304L42.7074 6.48204L45.3933 9.96718L49.3366 6.92818L46.6508 3.44304ZM9.07447 20.365C10.5362 21.8437 10.5362 24.2984 9.07447 25.7771L12.2037 28.8703C15.3598 25.6775 15.3598 20.4646 12.2037 17.2718L9.07447 20.365ZM9.07447 25.7771C7.62675 27.2416 5.24398 27.2416 3.79627 25.7771L0.66705 28.8703C3.83709 32.0772 9.03364 32.0772 12.2037 28.8703L9.07447 25.7771ZM3.79627 25.7771C2.33458 24.2984 2.33458 21.8437 3.79627 20.365L0.66705 17.2718C-2.48902 20.4646 -2.48902 25.6775 0.66705 28.8703L3.79627 25.7771ZM3.79627 20.365C5.24398 18.9005 7.62675 18.9005 9.07447 20.365L12.2037 17.2718C9.03364 14.0649 3.83709 14.0649 0.66705 17.2718L3.79627 20.365ZM11.6042 17.8783C8.7635 15.0046 4.10723 15.0046 1.26658 17.8783L4.3958 20.9715C5.51412 19.8402 7.35662 19.8402 8.47493 20.9715L11.6042 17.8783ZM1.26659 17.8783C-1.5601 20.7379 -1.5601 25.4042 1.26659 28.2638L4.3958 25.1706C3.2635 24.0251 3.2635 22.117 4.3958 20.9716L1.26659 17.8783ZM1.26658 28.2638C4.10723 31.1375 8.7635 31.1375 11.6042 28.2638L8.47493 25.1706C7.35662 26.3019 5.51412 26.3019 4.3958 25.1706L1.26658 28.2638ZM11.6041 28.2638C14.4308 25.4042 14.4308 20.7379 11.6041 17.8783L8.47494 20.9716C9.60724 22.117 9.60724 24.0251 8.47494 25.1706L11.6041 28.2638ZM29.1461 29.3041C28.8173 29.6367 28.313 29.8603 27.7513 29.8231C27.2481 29.7897 26.861 29.5598 26.6124 29.3082C26.3632 29.0561 26.1453 28.6741 26.1138 28.1872C26.0786 27.6454 26.2883 27.1493 26.6164 26.8174L29.7456 29.9106C30.2709 29.3793 30.5535 28.6578 30.5045 27.9026C30.4591 27.2022 30.1407 26.6187 29.7416 26.215C29.3431 25.8118 28.7568 25.4801 28.0426 25.4327C27.2699 25.3815 26.5428 25.6788 26.0169 26.2109L29.1461 29.3041ZM26.6164 26.8174L23.0256 30.4499L26.1549 33.5432L29.7456 29.9106L26.6164 26.8174ZM23.0256 33.5432L26.6164 37.1757L29.7456 34.0825L26.1549 30.4499L23.0256 33.5432ZM26.6164 37.1757C26.2883 36.8438 26.0786 36.3477 26.1137 35.8059C26.1453 35.319 26.3631 34.937 26.6124 34.6849C26.861 34.4333 27.2481 34.2034 27.7513 34.17C28.313 34.1328 28.8173 34.3564 29.1461 34.689L26.0169 37.7822C26.5428 38.3143 27.2699 38.6116 28.0426 38.5604C28.7568 38.513 29.343 38.1813 29.7416 37.7781C30.1407 37.3744 30.4591 36.7909 30.5045 36.0905C30.5535 35.3353 30.2708 34.6138 29.7456 34.0825L26.6164 37.1757ZM29.1461 34.689L25.5553 31.0564L22.4261 34.1497L26.0169 37.7822L29.1461 34.689ZM22.4261 31.0565L18.8354 34.689L21.9646 37.7822L25.5553 34.1497L22.4261 31.0565ZM18.8354 34.689C19.1642 34.3564 19.6685 34.1328 20.2302 34.17C20.7333 34.2034 21.1204 34.4333 21.3691 34.6849C21.6183 34.937 21.8362 35.319 21.8677 35.8059C21.9028 36.3477 21.6931 36.8438 21.3651 37.1757L18.2359 34.0825C17.7106 34.6138 17.428 35.3353 17.4769 36.0905C17.5223 36.7909 17.8408 37.3744 18.2399 37.7781C18.6384 38.1813 19.2247 38.513 19.9389 38.5604C20.7115 38.6116 21.4386 38.3143 21.9646 37.7822L18.8354 34.689ZM21.3651 37.1757L24.9558 33.5432L21.8266 30.4499L18.2359 34.0825L21.3651 37.1757ZM24.9558 30.4499L21.365 26.8174L18.2358 29.9106L21.8266 33.5432L24.9558 30.4499ZM21.365 26.8174C21.6931 27.1493 21.9028 27.6454 21.8677 28.1872C21.8361 28.6741 21.6183 29.0561 21.3691 29.3082C21.1204 29.5598 20.7333 29.7897 20.2301 29.8231C19.6684 29.8603 19.1642 29.6367 18.8354 29.3041L21.9645 26.2109C21.4386 25.6788 20.7115 25.3815 19.9388 25.4327C19.2247 25.4801 18.6384 25.8118 18.2399 26.215C17.8408 26.6187 17.5223 27.2022 17.4769 27.9025C17.428 28.6578 17.7106 29.3792 18.2358 29.9106L21.365 26.8174ZM18.8353 29.3041L22.4261 32.9367L25.5553 29.8435L21.9646 26.2109L18.8353 29.3041ZM25.5553 32.9367L29.1461 29.3041L26.0169 26.2109L22.4261 29.8434L25.5553 32.9367ZM49.3361 29.0233C49.0073 29.3559 48.503 29.5795 47.9414 29.5422C47.4382 29.5088 47.0511 29.2789 46.8024 29.0273C46.5532 28.7752 46.3354 28.3932 46.3038 27.9063C46.2687 27.3646 46.4784 26.8685 46.8064 26.5366L49.9357 29.6297C50.4609 29.0984 50.7435 28.3769 50.6946 27.6217C50.6492 26.9213 50.3307 26.3378 49.9316 25.9341C49.5331 25.5309 48.9468 25.1992 48.2326 25.1519C47.46 25.1006 46.7329 25.398 46.2069 25.93L49.3361 29.0233ZM46.8065 26.5365L43.2157 30.1691L46.3449 33.2623L49.9357 29.6298L46.8065 26.5365ZM43.2157 33.2623L46.8064 36.8948L49.9357 33.8016L46.3449 30.1691L43.2157 33.2623ZM46.8064 36.8948C46.4783 36.5629 46.2686 36.0668 46.3038 35.5251C46.3353 35.0381 46.5532 34.6562 46.8024 34.404C47.0511 34.1525 47.4382 33.9226 47.9414 33.8892C48.503 33.8519 49.0073 34.0755 49.3361 34.4081L46.2069 37.5013C46.7328 38.0334 47.4599 38.3308 48.2326 38.2795C48.9468 38.2321 49.5331 37.9005 49.9316 37.4973C50.3307 37.0935 50.6491 36.5101 50.6945 35.8097C50.7435 35.0545 50.4609 34.333 49.9357 33.8016L46.8064 36.8948ZM49.3361 34.4081L45.7454 30.7756L42.6162 33.8688L46.2069 37.5013L49.3361 34.4081ZM42.6162 30.7756L39.0254 34.4081L42.1546 37.5014L45.7454 33.8688L42.6162 30.7756ZM39.0254 34.4081C39.3542 34.0755 39.8585 33.8519 40.4202 33.8892C40.9234 33.9226 41.3105 34.1525 41.5591 34.404C41.8083 34.6562 42.0262 35.0381 42.0578 35.5251C42.0929 36.0669 41.8832 36.563 41.5551 36.8949L38.4259 33.8016C37.9006 34.333 37.618 35.0545 37.667 35.8097C37.7124 36.5101 38.0308 37.0935 38.4299 37.4973C38.8285 37.9004 39.4147 38.2321 40.1289 38.2795C40.9016 38.3308 41.6287 38.0334 42.1546 37.5013L39.0254 34.4081ZM41.5551 36.8948L45.1458 33.2623L42.0166 30.1691L38.4259 33.8016L41.5551 36.8948ZM45.1458 30.1691L41.5551 26.5365L38.4259 29.6298L42.0166 33.2623L45.1458 30.1691ZM41.5551 26.5365C41.8832 26.8684 42.0929 27.3645 42.0577 27.9063C42.0262 28.3932 41.8083 28.7752 41.5591 29.0273C41.3105 29.2789 40.9233 29.5088 40.4202 29.5422C39.8585 29.5795 39.3542 29.3559 39.0254 29.0232L42.1546 25.93C41.6287 25.398 40.9015 25.1006 40.1289 25.1519C39.4147 25.1992 38.8284 25.5309 38.4299 25.9341C38.0308 26.3378 37.7124 26.9213 37.667 27.6217C37.618 28.3769 37.9006 29.0984 38.4259 29.6298L41.5551 26.5365ZM39.0254 29.0232L42.6162 32.6558L45.7454 29.5626L42.1546 25.93L39.0254 29.0232ZM45.7454 32.6558L49.3361 29.0232L46.2069 25.93L42.6162 29.5626L45.7454 32.6558ZM49.3307 15.7027C49.0019 16.0353 48.4976 16.259 47.936 16.2217C47.4328 16.1883 47.0456 15.9584 46.797 15.7068C46.5478 15.4547 46.3299 15.0727 46.2984 14.5858C46.2632 14.044 46.4729 13.5479 46.801 13.216L49.9302 16.3092C50.4555 15.7779 50.7381 15.0564 50.6891 14.3012C50.6437 13.6008 50.3253 13.0173 49.9262 12.6136C49.5277 12.2104 48.9414 11.8787 48.2272 11.8313C47.4545 11.7801 46.7274 12.0775 46.2015 12.6095L49.3307 15.7027ZM46.801 13.216L43.2103 16.8486L46.3395 19.9418L49.9302 16.3092L46.801 13.216ZM43.2103 19.9418L46.801 23.5743L49.9302 20.4811L46.3395 16.8486L43.2103 19.9418ZM46.801 23.5743C46.4729 23.2424 46.2632 22.7463 46.2983 22.2045C46.3299 21.7176 46.5478 21.3356 46.797 21.0835C47.0456 20.832 47.4327 20.6021 47.9359 20.5687C48.4976 20.5314 49.0019 20.755 49.3307 21.0876L46.2015 24.1808C46.7274 24.7129 47.4545 25.0103 48.2272 24.959C48.9414 24.9116 49.5276 24.5799 49.9262 24.1768C50.3253 23.773 50.6437 23.1896 50.6891 22.4892C50.7381 21.734 50.4555 21.0125 49.9302 20.4811L46.801 23.5743ZM49.3307 21.0876L45.7399 17.4551L42.6107 20.5483L46.2015 24.1808L49.3307 21.0876ZM42.6107 17.4551L39.02 21.0876L42.1492 24.1808L45.7399 20.5483L42.6107 17.4551ZM39.02 21.0876C39.3488 20.755 39.8531 20.5314 40.4148 20.5687C40.9179 20.6021 41.3051 20.832 41.5537 21.0835C41.8029 21.3356 42.0208 21.7176 42.0523 22.2046C42.0875 22.7463 41.8778 23.2424 41.5497 23.5744L38.4205 20.4811C37.8952 21.0125 37.6126 21.734 37.6616 22.4892C37.707 23.1895 38.0254 23.773 38.4245 24.1768C38.823 24.5799 39.4093 24.9116 40.1235 24.959C40.8962 25.0103 41.6233 24.7129 42.1492 24.1808L39.02 21.0876ZM41.5497 23.5743L45.1404 19.9418L42.0112 16.8486L38.4205 20.4811L41.5497 23.5743ZM45.1404 16.8486L41.5497 13.216L38.4204 16.3092L42.0112 19.9418L45.1404 16.8486ZM41.5496 13.216C41.8777 13.5479 42.0874 14.044 42.0523 14.5858C42.0208 15.0727 41.8029 15.4547 41.5537 15.7068C41.305 15.9584 40.9179 16.1883 40.4147 16.2217C39.853 16.259 39.3487 16.0353 39.0199 15.7027L42.1492 12.6095C41.6233 12.0775 40.8962 11.7801 40.1235 11.8313C39.4093 11.8787 38.823 12.2104 38.4245 12.6136C38.0254 13.0173 37.7069 13.6008 37.6615 14.3012C37.6126 15.0564 37.8952 15.7779 38.4205 16.3093L41.5496 13.216ZM39.02 15.7027L42.6107 19.3353L45.7399 16.2421L42.1492 12.6095L39.02 15.7027ZM45.7399 19.3353L49.3307 15.7027L46.2015 12.6095L42.6107 16.2421L45.7399 19.3353Z" fill="#2E8096" mask="url(#path-1-inside-1_89_6255)"/>
</svg>
