<svg width="49" height="43" viewBox="0 0 49 43" fill="none" xmlns="http://www.w3.org/2000/svg">
<path d="M48.5 1.89299H31.2945V2.28252C29.1459 1.42787 26.8173 0.945312 24.3819 0.945312C20.6866 0.945312 17.2331 2.03834 14.297 3.91043C12.9247 3.05578 11.3217 2.54996 9.60616 2.54996C4.58343 2.54996 0.5 6.77089 0.5 11.9628C0.5 15.4686 2.36735 18.5209 5.11776 20.143C5.10652 20.3872 5.10089 20.6314 5.10089 20.8755C5.10089 28.9686 9.7974 35.9279 16.5131 39.05L14.3364 42.9453H34.9842L32.695 38.8407C39.1745 35.6255 43.6629 28.7883 43.6629 20.8755C43.6629 20.4744 43.646 20.0732 43.6235 19.6779H48.5V1.89299ZM2.18737 11.9628C2.18737 7.73601 5.51711 4.29415 9.60616 4.29415C13.6952 4.29415 17.025 7.73601 17.025 11.9628C17.025 16.1895 13.6952 19.6314 9.60616 19.6314C5.51711 19.6314 2.18737 16.1895 2.18737 11.9628ZM17.2612 41.1953L24.6631 27.9395L32.065 41.1953H17.2612ZM41.9755 20.8697C41.9755 28.1372 37.8246 34.4104 31.8513 37.3174L24.6631 24.4511L17.3624 37.5267C11.1585 34.7244 6.80513 28.3348 6.79388 20.9046C7.68256 21.2011 8.62749 21.3697 9.61179 21.3697C14.6345 21.3697 18.718 17.1488 18.718 11.9569C18.718 9.21857 17.5762 6.75927 15.7651 5.03834C18.3186 3.54415 21.2546 2.68368 24.3931 2.68368C26.8454 2.68368 29.1853 3.20694 31.3057 4.1488V19.6662H41.9418C41.9699 20.0616 41.9868 20.4628 41.9868 20.8639L41.9755 20.8697ZM46.8126 17.9279H32.9818V3.63717H46.8126V17.9337V17.9279Z" fill="#2E8096"/>
</svg>
