<svg width="49" height="46" viewBox="0 0 49 46" fill="none" xmlns="http://www.w3.org/2000/svg">
<path d="M43.2745 5.9338C41.1338 3.89107 38.4851 2.40166 35.5772 1.60535C32.6692 0.809043 29.5972 0.731936 26.6495 1.38127C23.7018 2.0306 20.9751 3.38508 18.7251 5.31761C16.4751 7.25014 14.7757 9.69735 13.7863 12.4296C10.8101 13.1788 8.08743 14.6518 5.88348 16.7052C3.67953 18.7586 2.06932 21.3224 1.2096 24.147C0.349881 26.9717 0.269931 29.9609 0.977537 32.8239C1.68514 35.6868 3.15619 38.3259 5.24751 40.4842C7.33882 42.6425 9.97914 44.2466 12.9115 45.1402C15.8438 46.0338 18.9682 46.1865 21.9806 45.5835C24.9931 44.9805 27.7908 43.6424 30.1016 41.6993C32.4124 39.7562 34.1575 37.2743 35.167 34.4953C38.2066 33.7361 40.9826 32.2233 43.2144 30.1099C45.4462 27.9966 47.0547 25.3575 47.8774 22.4594C48.7 19.5614 48.7076 16.5072 47.8994 13.6054C47.0912 10.7037 45.4958 8.0573 43.2745 5.9338ZM34.1498 28.9241C34.1514 30.2585 33.9669 31.5871 33.6013 32.875C32.6317 33.0515 31.6466 33.1393 30.6595 33.1371C29.7116 33.1373 28.7656 33.0575 27.8323 32.8988L34.0202 26.9844C34.106 27.6277 34.1493 28.2756 34.1498 28.9241ZM25.5936 32.3459H25.5886C23.3872 31.6397 21.3787 30.4722 19.7099 28.9289L30.1908 18.9111C31.7554 20.5898 32.9011 22.586 33.5415 24.7492L25.5936 32.3459ZM18.3487 27.5325C16.8401 25.767 15.7742 23.695 15.2323 21.4751L22.6767 14.3598C24.9385 14.972 27.0253 16.067 28.7797 17.5624L18.3487 27.5325ZM14.8584 19.1351C14.8285 18.7586 14.8135 18.3773 14.8135 17.9913C14.8094 16.6571 14.9922 15.3283 15.357 14.0405C16.3283 13.8634 17.315 13.7757 18.3038 13.7783C18.9823 13.7788 19.6601 13.8202 20.3332 13.9023L14.8584 19.1351ZM41.8634 28.7001C40.158 30.3396 38.0797 31.5807 35.7903 32.3269C36.025 31.2065 36.1436 30.0667 36.1443 28.9241C36.1455 27.7177 36.0118 26.5146 35.7454 25.3354C35.5933 24.6203 35.3884 23.9164 35.1321 23.2289C34.2384 20.8363 32.7996 18.6635 30.9198 16.8675C29.0399 15.0715 26.7659 13.6973 24.2623 12.8442C23.5439 12.5955 22.8073 12.398 22.0584 12.2533C20.1009 11.8522 18.0869 11.7668 16.0999 12.0007C17.0227 9.95131 18.4076 8.12207 20.1559 6.64369C21.9041 5.16531 23.9724 4.0743 26.213 3.44863C28.4536 2.82296 30.8111 2.67809 33.117 3.02436C35.423 3.37063 37.6204 4.1995 39.5524 5.45173C41.4843 6.70395 43.1029 8.34861 44.2926 10.2682C45.4823 12.1877 46.2137 14.3348 46.4345 16.5558C46.6553 18.7769 46.3601 21.0172 45.5699 23.1166C44.7797 25.2159 43.514 27.1225 41.8634 28.7001Z" fill="#2E8096"/>
</svg>
