<svg width="51" height="51" viewBox="0 0 51 51" fill="none" xmlns="http://www.w3.org/2000/svg">
<mask id="path-1-inside-1_89_6238" fill="white">
<path fillRule="evenodd" clip-rule="evenodd" d="M45.1854 43.5515L24.406 49.17C22.9946 49.5513 21.6112 49.365 20.1773 48.5973L13.4233 44.9868C11.267 43.8332 9.191 43.6805 6.80622 44.5209V31.8744L11.5839 29.8829C12.9949 29.2937 14.3675 29.2891 15.7774 29.8669L27.3766 36.688C28.0826 37.1029 28.5871 37.7751 28.7972 38.5815C29.0084 39.3879 28.8974 40.2242 28.4869 40.9357C28.0749 41.6487 27.4093 42.1585 26.6108 42.371C25.8133 42.5836 24.9847 42.4716 24.2782 42.0558L18.0568 38.3984C17.6836 38.1786 17.2041 38.306 16.9864 38.6832C16.7686 39.0598 16.8949 39.5437 17.2685 39.763L23.4899 43.4215C24.2051 43.842 25.0026 44.0561 25.8123 44.0561C26.2111 44.0561 26.6134 44.005 27.0106 43.8992C28.0672 43.6175 28.9716 42.9886 29.5978 42.1079L43.7842 38.2714C44.4784 38.0836 45.2074 38.1822 45.8367 38.548C46.465 38.9148 46.9138 39.5025 47.0999 40.2031C47.4854 41.6596 46.627 43.1609 45.1854 43.5515ZM2.06531 46.9334V29.4676H5.2404V46.9334H2.06531ZM46.6189 37.1808C45.6282 36.6034 44.4774 36.4492 43.3783 36.7463L30.3866 40.2598C30.5154 39.5793 30.4924 38.8715 30.3119 38.1786C29.9945 36.9641 29.2328 35.9503 28.1654 35.3224L16.5186 28.4744C16.4879 28.4569 16.4568 28.4414 16.4245 28.4275C14.6205 27.6721 12.7904 27.6701 10.9858 28.4228L6.80571 30.1651V29.4531C6.80571 28.59 6.10996 27.8878 5.25472 27.8878H2.051C1.19575 27.8878 0.5 28.59 0.5 29.4531V46.9484C0.5 47.811 1.19575 48.5132 2.051 48.5132H5.25523C6.11047 48.5132 6.80622 47.811 6.80622 46.9484V46.2106C9.00338 45.3057 10.7814 45.3619 12.6907 46.3829L19.4447 49.9934C20.6343 50.6296 21.804 50.9453 22.9838 50.9453C23.5896 50.9453 24.1974 50.8622 24.8119 50.6956L45.5903 45.0776C47.8657 44.4616 49.2214 42.0924 48.611 39.7955C48.3171 38.6868 47.6096 37.7581 46.6189 37.1808ZM21.85 4.33137C21.6235 3.9599 21.738 3.47286 22.1061 3.24482C22.4747 3.01626 22.9567 3.13183 23.1827 3.5033L26.0914 8.27155C26.3179 8.64302 26.2034 9.13006 25.8353 9.35861C25.707 9.43807 25.5654 9.47625 25.4253 9.47625C25.1626 9.47625 24.9054 9.34262 24.7577 9.10013L21.85 4.33137ZM37.5721 8.27155L40.4808 3.5033C40.7073 3.13183 41.1899 3.01626 41.5574 3.24482C41.926 3.47338 42.04 3.9599 41.8135 4.33137L38.9053 9.10013C38.7576 9.34211 38.5009 9.47625 38.2377 9.47625C38.0981 9.47625 37.956 9.43807 37.8282 9.35861C37.4601 9.12954 37.3456 8.64302 37.5721 8.27155ZM31.0491 7.63953V1.7352C31.0491 1.29873 31.3998 0.945312 31.8318 0.945312C32.2637 0.945312 32.6144 1.29924 32.6144 1.7352V7.63953C32.6144 8.07601 32.2637 8.42942 31.8318 8.42942C31.3998 8.42942 31.0491 8.07549 31.0491 7.63953ZM19.9089 12.5331L23.9807 16.6425H15.8372L19.9089 12.5331ZM39.6833 16.6425L43.7551 12.5331L47.8274 16.6425H39.6833ZM38.3578 18.2223L33.623 32.5575L47.8268 18.2223H38.3578ZM25.3072 18.2223H15.85L29.9873 32.3532L25.3072 18.2223ZM25.8706 16.3154L29.9429 12.2055H21.7988L25.8706 16.3154ZM33.7217 12.2055L37.7939 16.3154L41.8657 12.2055H33.7217ZM27.7605 16.6425L31.8323 12.5326L35.9045 16.6425H27.7605ZM36.7076 18.2223H26.9579L31.8399 32.962L36.7076 18.2223ZM50.2704 16.8742L44.3087 10.8574C44.1625 10.7088 43.9632 10.6257 43.7556 10.6257H31.8328H19.9089C19.7014 10.6257 19.502 10.7088 19.3553 10.8574L13.3936 16.8742C13.2464 17.0223 13.1641 17.224 13.1646 17.4345C13.1651 17.645 13.2484 17.8462 13.3967 17.9938L31.3676 35.957C31.5199 36.1092 31.7193 36.1855 31.9181 36.1855C32.1185 36.1855 32.3189 36.1087 32.4718 35.9539L50.2699 17.9912C50.5766 17.6827 50.5766 17.1827 50.2704 16.8742Z"/>
</mask>
<path fillRule="evenodd" clip-rule="evenodd" d="M45.1854 43.5515L24.406 49.17C22.9946 49.5513 21.6112 49.365 20.1773 48.5973L13.4233 44.9868C11.267 43.8332 9.191 43.6805 6.80622 44.5209V31.8744L11.5839 29.8829C12.9949 29.2937 14.3675 29.2891 15.7774 29.8669L27.3766 36.688C28.0826 37.1029 28.5871 37.7751 28.7972 38.5815C29.0084 39.3879 28.8974 40.2242 28.4869 40.9357C28.0749 41.6487 27.4093 42.1585 26.6108 42.371C25.8133 42.5836 24.9847 42.4716 24.2782 42.0558L18.0568 38.3984C17.6836 38.1786 17.2041 38.306 16.9864 38.6832C16.7686 39.0598 16.8949 39.5437 17.2685 39.763L23.4899 43.4215C24.2051 43.842 25.0026 44.0561 25.8123 44.0561C26.2111 44.0561 26.6134 44.005 27.0106 43.8992C28.0672 43.6175 28.9716 42.9886 29.5978 42.1079L43.7842 38.2714C44.4784 38.0836 45.2074 38.1822 45.8367 38.548C46.465 38.9148 46.9138 39.5025 47.0999 40.2031C47.4854 41.6596 46.627 43.1609 45.1854 43.5515ZM2.06531 46.9334V29.4676H5.2404V46.9334H2.06531ZM46.6189 37.1808C45.6282 36.6034 44.4774 36.4492 43.3783 36.7463L30.3866 40.2598C30.5154 39.5793 30.4924 38.8715 30.3119 38.1786C29.9945 36.9641 29.2328 35.9503 28.1654 35.3224L16.5186 28.4744C16.4879 28.4569 16.4568 28.4414 16.4245 28.4275C14.6205 27.6721 12.7904 27.6701 10.9858 28.4228L6.80571 30.1651V29.4531C6.80571 28.59 6.10996 27.8878 5.25472 27.8878H2.051C1.19575 27.8878 0.5 28.59 0.5 29.4531V46.9484C0.5 47.811 1.19575 48.5132 2.051 48.5132H5.25523C6.11047 48.5132 6.80622 47.811 6.80622 46.9484V46.2106C9.00338 45.3057 10.7814 45.3619 12.6907 46.3829L19.4447 49.9934C20.6343 50.6296 21.804 50.9453 22.9838 50.9453C23.5896 50.9453 24.1974 50.8622 24.8119 50.6956L45.5903 45.0776C47.8657 44.4616 49.2214 42.0924 48.611 39.7955C48.3171 38.6868 47.6096 37.7581 46.6189 37.1808ZM21.85 4.33137C21.6235 3.9599 21.738 3.47286 22.1061 3.24482C22.4747 3.01626 22.9567 3.13183 23.1827 3.5033L26.0914 8.27155C26.3179 8.64302 26.2034 9.13006 25.8353 9.35861C25.707 9.43807 25.5654 9.47625 25.4253 9.47625C25.1626 9.47625 24.9054 9.34262 24.7577 9.10013L21.85 4.33137ZM37.5721 8.27155L40.4808 3.5033C40.7073 3.13183 41.1899 3.01626 41.5574 3.24482C41.926 3.47338 42.04 3.9599 41.8135 4.33137L38.9053 9.10013C38.7576 9.34211 38.5009 9.47625 38.2377 9.47625C38.0981 9.47625 37.956 9.43807 37.8282 9.35861C37.4601 9.12954 37.3456 8.64302 37.5721 8.27155ZM31.0491 7.63953V1.7352C31.0491 1.29873 31.3998 0.945312 31.8318 0.945312C32.2637 0.945312 32.6144 1.29924 32.6144 1.7352V7.63953C32.6144 8.07601 32.2637 8.42942 31.8318 8.42942C31.3998 8.42942 31.0491 8.07549 31.0491 7.63953ZM19.9089 12.5331L23.9807 16.6425H15.8372L19.9089 12.5331ZM39.6833 16.6425L43.7551 12.5331L47.8274 16.6425H39.6833ZM38.3578 18.2223L33.623 32.5575L47.8268 18.2223H38.3578ZM25.3072 18.2223H15.85L29.9873 32.3532L25.3072 18.2223ZM25.8706 16.3154L29.9429 12.2055H21.7988L25.8706 16.3154ZM33.7217 12.2055L37.7939 16.3154L41.8657 12.2055H33.7217ZM27.7605 16.6425L31.8323 12.5326L35.9045 16.6425H27.7605ZM36.7076 18.2223H26.9579L31.8399 32.962L36.7076 18.2223ZM50.2704 16.8742L44.3087 10.8574C44.1625 10.7088 43.9632 10.6257 43.7556 10.6257H31.8328H19.9089C19.7014 10.6257 19.502 10.7088 19.3553 10.8574L13.3936 16.8742C13.2464 17.0223 13.1641 17.224 13.1646 17.4345C13.1651 17.645 13.2484 17.8462 13.3967 17.9938L31.3676 35.957C31.5199 36.1092 31.7193 36.1855 31.9181 36.1855C32.1185 36.1855 32.3189 36.1087 32.4718 35.9539L50.2699 17.9912C50.5766 17.6827 50.5766 17.1827 50.2704 16.8742Z" fill="#2E8096" stroke="#2E8096" stroke-width="2.24" mask="url(#path-1-inside-1_89_6238)"/>
</svg>
