<svg width="49" height="38" viewBox="0 0 49 38" fill="none" xmlns="http://www.w3.org/2000/svg">
<path d="M48.0692 25.5698L44.9331 23.1829C45.0882 22.407 45.1665 21.6164 45.1665 20.8235C45.1665 20.0305 45.0882 19.2399 44.9331 18.4643L48.0692 16.0774C48.5068 15.7449 48.6283 15.1392 48.3538 14.6634L46.09 10.7417C45.8151 10.2661 45.2294 10.0673 44.7231 10.2807L41.0861 11.8041C39.8934 10.7553 38.502 9.95194 37.0013 9.44435L36.5025 5.53442C36.4327 4.98953 35.9691 4.58132 35.4197 4.58132H30.8916C30.3422 4.58132 29.8785 4.98953 29.8087 5.53442L29.3099 9.44435C28.5879 9.68799 27.8924 10.0007 27.2297 10.3772C24.6436 7.57748 21.0351 5.73879 17.003 5.45506V3.12809H18.9028C19.5055 3.12809 19.9942 2.63942 19.9942 2.0367C19.9942 1.43399 19.5055 0.945312 18.9028 0.945312H12.9204C12.3177 0.945312 11.829 1.43399 11.829 2.0367C11.829 2.63942 12.3177 3.12809 12.9204 3.12809H14.8202V5.45506C6.82995 6.01734 0.5 12.6928 0.5 20.8235C0.5 29.3214 7.41338 36.2351 15.9116 36.2351C20.3831 36.2351 24.414 34.3194 27.2317 31.2677C27.8944 31.6441 28.5882 31.9593 29.3099 32.2029L29.8087 36.1125C29.8785 36.6574 30.3422 37.0656 30.8916 37.0656H35.4197C35.9691 37.0656 36.4327 36.6574 36.5025 36.1125L37.0013 32.2026C38.5025 31.695 39.8934 30.8914 41.0861 29.8429L44.7231 31.3665C45.2294 31.5788 45.8156 31.3817 46.09 30.9055L48.3538 26.9839C48.6283 26.508 48.5068 25.9023 48.0692 25.5698ZM15.9116 34.0523C8.61721 34.0523 2.68278 28.1179 2.68278 20.8235C2.68278 13.5293 8.61721 7.5949 15.9116 7.5949C23.206 7.5949 29.1405 13.5293 29.1405 20.8235C29.1405 28.1179 23.206 34.0523 15.9116 34.0523ZM31.1441 18.4726C31.7066 17.9905 32.4067 17.7156 33.1554 17.7156C34.8692 17.7156 36.2638 19.1097 36.2638 20.8235C36.2638 22.5373 34.8692 23.9314 33.1554 23.9314C32.4107 23.9314 31.701 23.6616 31.1422 23.1851C31.2611 22.415 31.3232 21.6264 31.3232 20.8235C31.3232 20.0243 31.2619 19.2392 31.1441 18.4726ZM44.68 28.9817L41.2784 27.557C40.8729 27.3867 40.4013 27.4781 40.0869 27.7901C38.8761 28.995 37.3674 29.8666 35.7234 30.3105C35.2966 30.4256 34.9816 30.7872 34.9251 31.2258L34.4588 34.8828H31.8524L31.3861 31.2258C31.3296 30.7872 31.0147 30.4256 30.5878 30.3102C29.9016 30.1252 29.2446 29.86 28.6175 29.5328C29.471 28.2916 30.1482 26.9207 30.6111 25.4549C31.3827 25.879 32.2537 26.1142 33.1554 26.1142C36.073 26.1142 38.4466 23.7409 38.4466 20.8235C38.4466 17.9061 36.073 15.5328 33.1554 15.5328C32.25 15.5328 31.3806 15.7611 30.6091 16.1862C30.1461 14.7222 29.4694 13.3528 28.6167 12.1131C29.2437 11.7859 29.9015 11.5219 30.5878 11.3364C31.0147 11.2213 31.3296 10.8597 31.3861 10.4212L31.8524 6.7641H34.4588L34.9251 10.4212C34.9816 10.8597 35.2966 11.2213 35.7234 11.3364C37.3669 11.7803 38.8761 12.6519 40.0869 13.8571C40.4007 14.1691 40.8718 14.2602 41.2784 14.0899L44.68 12.6652L45.9829 14.9226L43.0503 17.1547C42.6986 17.4222 42.543 17.8752 42.656 18.3023C42.8734 19.1238 42.9837 19.9719 42.9837 20.8235C42.9837 21.6751 42.8734 22.5234 42.656 23.3449C42.543 23.772 42.6986 24.225 43.0503 24.4925L45.9829 26.7246L44.68 28.9817Z" fill="#2E8096"/>
</svg>
