<svg width="38" height="32" viewBox="0 0 38 32" fill="none" xmlns="http://www.w3.org/2000/svg">
<mask id="mask0_433_2226" style="mask-type:luminance" maskUnits="userSpaceOnUse" x="0" y="0" width="38" height="32">
<path d="M0.814697 31.3396V0.570312H37.7378V31.3396H0.814697Z" fill="#2E8096"/>
</mask>
<g mask="url(#mask0_433_2226)">
<path d="M34.8741 8.0978C35.2593 8.4482 35.4885 8.9366 35.4885 9.4597C35.4885 9.9827 35.2596 10.471 34.8744 10.8214L20.7716 23.6419C20.3882 23.9903 19.8798 24.1773 19.3606 24.1773C18.8414 24.1773 18.3331 23.9904 17.9497 23.642L3.84707 10.8214L3.83922 10.8142C3.46427 10.4612 3.24488 9.9756 3.24984 9.4584C3.25476 8.9413 3.48328 8.4598 3.86424 8.1135C4.24331 7.7689 4.74479 7.5821 5.25827 7.578C5.77175 7.574 6.27618 7.7528 6.66113 8.0908L6.66907 8.0979L19.3606 19.6357L32.0522 8.0979C32.4356 7.7495 32.9439 7.5625 33.4633 7.5625C33.9824 7.5625 34.4907 7.7494 34.8741 8.0978Z" fill="#2E8096" stroke="#2E8096" stroke-width="1.23077"/>
</g>
</svg>
