<svg width="24" height="25" viewBox="0 0 24 25" fill="none" xmlns="http://www.w3.org/2000/svg">
<path d="M14 19.6582H19V5.6582H5V19.6582H12V14.6582H10V12.6582H12V11.0042C12 9.6672 12.14 9.1822 12.4 8.6932C12.6561 8.20939 13.052 7.81389 13.536 7.5582C13.918 7.3532 14.393 7.2302 15.223 7.1772C15.552 7.1562 15.978 7.1822 16.501 7.2572V9.1572H16C15.083 9.1572 14.704 9.2002 14.478 9.3212C14.3431 9.39056 14.2334 9.50035 14.164 9.6352C14.044 9.8612 14 10.0852 14 11.0032V12.6582H16.5L16 14.6582H14V19.6582ZM4 3.6582H20C20.2652 3.6582 20.5196 3.76356 20.7071 3.9511C20.8946 4.13863 21 4.39299 21 4.6582V20.6582C21 20.9234 20.8946 21.1778 20.7071 21.3653C20.5196 21.5528 20.2652 21.6582 20 21.6582H4C3.73478 21.6582 3.48043 21.5528 3.29289 21.3653C3.10536 21.1778 3 20.9234 3 20.6582V4.6582C3 4.39299 3.10536 4.13863 3.29289 3.9511C3.48043 3.76356 3.73478 3.6582 4 3.6582Z" fill="white"/>
</svg>
