<svg width="596" height="599" viewBox="0 0 596 599" fill="none" xmlns="http://www.w3.org/2000/svg">
<path d="M566.481 86.4343C564.55 40.1849 520.248 30.4838 520.248 30.4838C520.248 30.4838 366.697 9.25155 299.429 1.54402C232.14 -6.20437 236.328 53.63 236.328 53.63C236.328 53.63 251.609 489.727 253.196 543.744C254.998 608.099 320.463 597.742 320.463 597.742L551.808 561.032C593.876 553.305 595.96 505.103 595.96 505.103C595.96 505.103 568.633 136.925 566.481 86.4343C568.631 136.925 564.55 40.1849 566.481 86.4343ZM514.734 456.884L342.712 473.234C342.712 473.234 292.614 480.245 291.486 424.396C290.661 383.247 280.741 147.542 280.741 147.542C280.741 147.542 277.289 104.32 328.842 107.864C381.457 111.449 507.529 120.254 507.529 120.254C507.529 120.254 541.282 127.624 542.757 162.918C544.341 201.28 558.907 414.318 558.907 414.318C558.907 414.318 562.703 449.333 514.734 456.884ZM93.6116 393.344L61.8316 395.417C61.8316 395.417 29.7704 399.4 29.0345 367.213C28.5142 343.492 25.3011 208.847 25.3011 208.847C25.3011 208.847 23.0863 183.931 56.0592 185.963C64.4167 186.46 76.2662 187.157 89.3555 187.875C88.9009 165.546 88.5118 146.026 88.2071 131.17C70.0602 129.914 53.0851 128.559 40.952 127.385C-2.61418 122.983 0.0552506 156.544 0.0552506 156.544C0.0552506 156.544 5.31207 403.484 6.28937 433.759C7.48464 469.849 49.8321 463.994 49.8321 463.994L95.0459 459.553C94.6545 441.645 94.1319 418.821 93.6139 393.346L93.6116 393.344ZM220.007 168.892C219.882 165.98 219.35 163.095 218.423 160.307C204.509 159.273 169.581 150.927 158.383 161.783C151.284 168.615 154.214 183.015 154.387 191.202L179.72 192.514C179.72 192.514 201.317 196.757 202.252 217.073C203.25 239.224 203.119 363.288 203.119 363.288C203.119 363.288 205.549 383.525 174.901 387.809L158.817 388.905C158.903 393.305 158.99 396.852 159.032 399.48C159.707 434.856 200.71 423.523 226.431 421.23C228.646 383.705 224.716 345.045 223.806 307.501C222.698 261.312 222.285 215.043 220.007 168.892C221.395 197.135 219.855 165.746 220.007 168.892Z" fill="#2E8096"/>
<path d="M233.313 435.731L186.969 439.834C186.969 439.834 143.752 445.529 142.819 399.839C142.147 366.118 137.804 174.987 137.804 174.987C137.804 174.987 134.809 139.654 179.156 142.482C190.55 143.2 206.225 144.374 223.287 145.63C222.005 108.961 220.983 80.0386 220.462 65.1418C197.108 63.0493 175.096 60.9397 158.817 59.2278C100.207 53.1289 103.901 100.673 103.901 100.673C103.901 100.673 110.868 451.264 112.235 494.107C113.819 545.316 170.843 537.09 170.843 537.09L236.46 529.38C235.809 509.445 234.702 475.961 233.313 435.729V435.731ZM327.605 122.763C319.402 122.165 309.437 122.664 303.36 128.54C296.934 134.714 296.826 143.477 297.196 151.404C320.443 153.258 337.308 154.63 337.308 154.63C337.308 154.63 366.35 160.628 367.674 189.507C369.02 220.918 377.335 391.593 377.335 391.593C377.335 391.593 380.59 420.294 339.304 426.488L308.047 429.236C312.195 474.071 375.38 455.15 407.699 452.084C404.381 384.662 394.092 176.144 391.77 127.185C370.387 125.646 348.998 124.173 327.605 122.763C343.863 123.817 326 122.645 327.605 122.763Z" fill="#2E8096"/>
</svg>
