<svg width="600" height="600" viewBox="0 0 600 600" fill="none" xmlns="http://www.w3.org/2000/svg">
<path d="M470.817 600H129.183C57.8333 600 0 542.167 0 470.817V291.15L250 0H470.8C542.167 0 600 57.8333 600 129.183V470.8C600 542.167 542.167 600 470.817 600Z" fill="url(#paint0_radial_415_2228)"/>
<path d="M250 0L0 291.15C72.0833 387 246.883 454.15 361.467 348.95C428.133 265.617 389.6 129.15 339.583 84.3667C314.467 61.8667 284.4 29.5 250 0Z" fill="#1A5CF9"/>
<path d="M250 0L0 261.383V291.15C84.65 357.033 216.75 382.983 309.383 297.917C376.05 214.583 337.517 78.1167 287.5 33.3333C276.883 23.8333 264.133 12.25 250 0Z" fill="#21AAF5"/>
<path d="M0 207.95V261.383C78.1 294.3 171.917 294.15 242.717 229.167C296.45 162 283.883 60.3667 250 0H197.5L0 207.95Z" fill="#25E0F2"/>
<path d="M129.183 0C57.8333 0 0 57.8333 0 129.183V207.95C57.9333 214.317 117.583 200.3 166.317 155.55C201.633 111.4 207.317 52.4167 197.5 0H129.183Z" fill="#18FFFF"/>
<path d="M110.134 147.834C110.134 147.834 224.017 319.951 319.767 378.168C283.534 389.818 204.867 437.418 67.7002 353.301C102.634 401.184 164.484 497.218 315.883 488.168C368.933 485.584 401.284 468.751 431.05 457.118C460.817 445.484 489.284 446.768 513.867 490.768C519.05 450.651 520.334 413.118 478.934 370.418C478.934 370.418 519.867 214.368 345.584 91.2344C381.817 163.701 402.8 204.568 385.767 304.418C346.95 278.534 203.584 163.084 171.234 125.551C194.534 166.968 261.55 257.818 284.834 281.118C243.434 252.651 110.134 147.834 110.134 147.834Z" fill="black"/>
<defs>
<radialGradient id="paint0_radial_415_2228" cx="0" cy="0" r="1" gradientUnits="userSpaceOnUse" gradientTransform="translate(299.017 -26.4731) scale(906.633 547.969)">
<stop offset="0.202" stop-color="#27F5F1"/>
<stop offset="0.29" stop-color="#25E2EE"/>
<stop offset="0.468" stop-color="#20B1E7"/>
<stop offset="0.717" stop-color="#1963DB"/>
<stop offset="0.857" stop-color="#1434D4"/>
<stop offset="1" stop-color="#0015B5"/>
</radialGradient>
</defs>
</svg>
