<svg width="699" height="650" viewBox="0 0 699 650" fill="none" xmlns="http://www.w3.org/2000/svg">
<path d="M201.645 0C182.805 0 164.238 11.1331 154.681 28.2609L6.9627 296.596C-2.3209 313.724 -2.3209 335.99 6.9627 353.404L154.681 621.739C164.238 638.867 182.532 650 201.645 650H497.355C516.195 650 534.762 638.867 544.319 621.739L692.037 353.404C701.321 336.276 701.321 314.01 692.037 296.596L544.319 28.2609C534.762 11.1331 516.468 0 497.355 0H201.645ZM204.103 157.005C204.376 157.005 204.922 157.005 205.468 157.005H256.528C258.712 157.005 260.896 158.432 261.988 160.43L348.544 321.717C349.09 322.574 349.363 323.43 349.363 324.286C349.363 323.43 349.637 322.574 350.183 321.717L436.465 160.43C437.558 158.432 440.015 157.005 442.199 157.005H493.259C497.901 157.005 501.177 163 498.993 167.281L414.622 325.143L498.993 482.718C501.177 487 497.901 493.281 493.259 492.995H442.199C439.742 492.995 437.558 491.568 436.465 489.284L350.183 328.283C349.637 327.426 349.363 326.57 349.363 325.714C349.363 326.57 349.09 327.426 348.544 328.283L261.988 489.57C260.896 491.568 258.712 493.281 256.528 493.281H205.468C200.826 493.281 197.276 487 199.734 483.004L284.105 325.428L199.734 167.567C197.549 163.285 200.007 157.861 204.103 157.005Z" fill="#3498DB"/>
</svg>
