<svg width="24" height="25" viewBox="0 0 24 25" fill="none" xmlns="http://www.w3.org/2000/svg">
<path d="M12 9.6582C11.2044 9.6582 10.4413 9.97427 9.87868 10.5369C9.31607 11.0995 9 11.8626 9 12.6582C9 13.4539 9.31607 14.2169 9.87868 14.7795C10.4413 15.3421 11.2044 15.6582 12 15.6582C12.7956 15.6582 13.5587 15.3421 14.1213 14.7795C14.6839 14.2169 15 13.4539 15 12.6582C15 11.8626 14.6839 11.0995 14.1213 10.5369C13.5587 9.97427 12.7956 9.6582 12 9.6582ZM12 7.6582C13.3261 7.6582 14.5979 8.18499 15.5355 9.12267C16.4732 10.0604 17 11.3321 17 12.6582C17 13.9843 16.4732 15.2561 15.5355 16.1937C14.5979 17.1314 13.3261 17.6582 12 17.6582C10.6739 17.6582 9.40215 17.1314 8.46447 16.1937C7.52678 15.2561 7 13.9843 7 12.6582C7 11.3321 7.52678 10.0604 8.46447 9.12267C9.40215 8.18499 10.6739 7.6582 12 7.6582ZM18.5 7.4082C18.5 7.73972 18.3683 8.05767 18.1339 8.29209C17.8995 8.52651 17.5815 8.6582 17.25 8.6582C16.9185 8.6582 16.6005 8.52651 16.3661 8.29209C16.1317 8.05767 16 7.73972 16 7.4082C16 7.07668 16.1317 6.75874 16.3661 6.52432C16.6005 6.2899 16.9185 6.1582 17.25 6.1582C17.5815 6.1582 17.8995 6.2899 18.1339 6.52432C18.3683 6.75874 18.5 7.07668 18.5 7.4082ZM12 4.6582C9.526 4.6582 9.122 4.6652 7.971 4.7162C7.187 4.7532 6.661 4.8582 6.173 5.0482C5.739 5.2162 5.426 5.4172 5.093 5.7512C4.78001 6.0536 4.53935 6.42279 4.389 6.8312C4.199 7.3212 4.094 7.8462 4.058 8.6292C4.006 9.7332 4 10.1192 4 12.6582C4 15.1322 4.007 15.5362 4.058 16.6872C4.095 17.4702 4.2 17.9972 4.389 18.4842C4.559 18.9192 4.759 19.2322 5.091 19.5642C5.428 19.9002 5.741 20.1012 6.171 20.2672C6.665 20.4582 7.191 20.5642 7.971 20.6002C9.075 20.6522 9.461 20.6582 12 20.6582C14.474 20.6582 14.878 20.6512 16.029 20.6002C16.811 20.5632 17.338 20.4582 17.826 20.2692C18.259 20.1002 18.574 19.8992 18.906 19.5672C19.243 19.2302 19.444 18.9172 19.61 18.4872C19.8 17.9942 19.906 17.4672 19.942 16.6872C19.994 15.5832 20 15.1972 20 12.6582C20 10.1842 19.993 9.7802 19.942 8.6292C19.905 7.8472 19.8 7.3192 19.61 6.8312C19.4593 6.4232 19.2191 6.05416 18.907 5.7512C18.6047 5.43805 18.2355 5.19737 17.827 5.0472C17.337 4.8572 16.811 4.7522 16.029 4.7162C14.925 4.6642 14.539 4.6582 12 4.6582ZM12 2.6582C14.717 2.6582 15.056 2.6682 16.122 2.7182C17.187 2.7682 17.912 2.9352 18.55 3.1832C19.21 3.4372 19.766 3.7812 20.322 4.3362C20.8305 4.8361 21.224 5.44079 21.475 6.1082C21.722 6.7452 21.89 7.4712 21.94 8.5362C21.987 9.6022 22 9.9412 22 12.6582C22 15.3752 21.99 15.7142 21.94 16.7802C21.89 17.8452 21.722 18.5702 21.475 19.2082C21.2247 19.876 20.8311 20.4808 20.322 20.9802C19.822 21.4885 19.2173 21.882 18.55 22.1332C17.913 22.3802 17.187 22.5482 16.122 22.5982C15.056 22.6452 14.717 22.6582 12 22.6582C9.283 22.6582 8.944 22.6482 7.878 22.5982C6.813 22.5482 6.088 22.3802 5.45 22.1332C4.78233 21.8827 4.17753 21.4891 3.678 20.9802C3.16941 20.4804 2.77593 19.8757 2.525 19.2082C2.277 18.5712 2.11 17.8452 2.06 16.7802C2.013 15.7142 2 15.3752 2 12.6582C2 9.9412 2.01 9.6022 2.06 8.5362C2.11 7.4702 2.277 6.7462 2.525 6.1082C2.77524 5.44038 3.1688 4.83552 3.678 4.3362C4.17767 3.82743 4.78243 3.43393 5.45 3.1832C6.088 2.9352 6.812 2.7682 7.878 2.7182C8.944 2.6712 9.283 2.6582 12 2.6582Z" fill="white"/>
</svg>
