<svg width="53" height="53" viewBox="0 0 53 53" fill="none" xmlns="http://www.w3.org/2000/svg">
<path d="M43.764 17.6748H46.0642C47.213 17.6748 48.3149 18.1312 49.1272 18.9435C49.9396 19.7559 50.396 20.8577 50.396 22.0066V30.6703C50.396 31.8192 49.9396 32.921 49.1272 33.7334C48.3149 34.5458 47.213 35.0022 46.0642 35.0022H43.764C43.2359 39.1896 41.1979 43.0403 38.0324 45.8318C34.8668 48.6233 30.7914 50.1636 26.5708 50.1636V45.8318C30.0175 45.8318 33.3229 44.4626 35.7601 42.0255C38.1972 39.5884 39.5664 36.2829 39.5664 32.8362V19.8407C39.5664 16.3941 38.1972 13.0886 35.7601 10.6515C33.3229 8.21431 30.0175 6.84514 26.5708 6.84514C23.1242 6.84514 19.8187 8.21431 17.3816 10.6515C14.9445 13.0886 13.5753 16.3941 13.5753 19.8407V35.0022H7.07752C5.92864 35.0022 4.82682 34.5458 4.01444 33.7334C3.20206 32.921 2.74567 31.8192 2.74567 30.6703V22.0066C2.74567 20.8577 3.20206 19.7559 4.01444 18.9435C4.82682 18.1312 5.92864 17.6748 7.07752 17.6748H9.37773C9.90628 13.4878 11.9445 9.63761 15.11 6.84661C18.2755 4.0556 22.3507 2.51562 26.5708 2.51562C30.791 2.51562 34.8662 4.0556 38.0317 6.84661C41.1972 9.63761 43.2354 13.4878 43.764 17.6748V17.6748ZM7.07752 22.0066V30.6703H9.24344V22.0066H7.07752ZM43.8982 22.0066V30.6703H46.0642V22.0066H43.8982ZM17.3873 34.5365L19.6832 30.8631C21.7475 32.1562 24.135 32.8402 26.5708 32.8362C29.0067 32.8402 31.3942 32.1562 33.4585 30.8631L35.7544 34.5365C33.002 36.2609 29.8187 37.1731 26.5708 37.1681C23.3229 37.1731 20.1396 36.2609 17.3873 34.5365Z" fill="#2E8096"/>
</svg>
