<svg width="53" height="53" viewBox="0 0 53 53" fill="none" xmlns="http://www.w3.org/2000/svg">
<path d="M36.9981 33.8514V48.7357C36.9981 48.9273 36.9473 49.1155 36.8509 49.281C36.7544 49.4466 36.6158 49.5836 36.4491 49.6781C36.2824 49.7726 36.0936 49.8211 35.902 49.8188C35.7104 49.8165 35.5228 49.7633 35.3585 49.6649L26.1685 44.1504L16.9784 49.6649C16.8139 49.7634 16.6262 49.8166 16.4344 49.8188C16.2426 49.821 16.0537 49.7723 15.8869 49.6775C15.7201 49.5828 15.5815 49.4455 15.4852 49.2796C15.3889 49.1138 15.3384 48.9253 15.3388 48.7335V33.8536C12.5365 31.6099 10.5001 28.5512 9.51133 25.1001C8.52251 21.649 8.63001 17.976 9.81896 14.5887C11.0079 11.2014 13.2196 8.26698 16.1484 6.19101C19.0772 4.11503 22.5785 3 26.1685 3C29.7584 3 33.2597 4.11503 36.1885 6.19101C39.1173 8.26698 41.329 11.2014 42.518 14.5887C43.7069 17.976 43.8144 21.649 42.8256 25.1001C41.8368 28.5512 39.8005 31.6099 36.9981 33.8536V33.8514ZM19.6707 36.3921V42.9981L26.1685 39.0995L32.6662 42.9981V36.3921C30.6018 37.227 28.3954 37.6551 26.1685 37.6526C23.9415 37.6551 21.7352 37.227 19.6707 36.3921V36.3921ZM26.1685 33.3208C29.6151 33.3208 32.9206 31.9516 35.3577 29.5145C37.7948 27.0773 39.164 23.7719 39.164 20.3252C39.164 16.8786 37.7948 13.5731 35.3577 11.136C32.9206 8.69885 29.6151 7.32968 26.1685 7.32968C22.7218 7.32968 19.4164 8.69885 16.9792 11.136C14.5421 13.5731 13.1729 16.8786 13.1729 20.3252C13.1729 23.7719 14.5421 27.0773 16.9792 29.5145C19.4164 31.9516 22.7218 33.3208 26.1685 33.3208V33.3208Z" fill="#2E8096"/>
</svg>
