<svg width="53" height="53" viewBox="0 0 53 53" fill="none" xmlns="http://www.w3.org/2000/svg">
<path d="M28.7368 45.6117V49.9435H24.4049V45.6117H7.07755C6.50311 45.6117 5.9522 45.3835 5.54601 44.9773C5.13982 44.5711 4.91162 44.0202 4.91162 43.4457V13.1228H48.2301V43.4457C48.2301 44.0202 48.0019 44.5711 47.5957 44.9773C47.1896 45.3835 46.6386 45.6117 46.0642 45.6117H28.7368ZM9.24347 41.2798H43.8983V17.4546H9.24347V41.2798ZM28.7368 21.7865H39.5664V26.1183H28.7368V21.7865ZM28.7368 30.4502H39.5664V34.782H28.7368V30.4502ZM20.0731 21.7865V28.2843H26.5709C26.5709 29.5694 26.1898 30.8257 25.4758 31.8942C24.7618 32.9628 23.747 33.7956 22.5597 34.2874C21.3724 34.7792 20.0659 34.9079 18.8054 34.6572C17.545 34.4065 16.3872 33.7876 15.4785 32.8789C14.5697 31.9701 13.9509 30.8124 13.7002 29.5519C13.4495 28.2915 13.5781 26.985 14.0699 25.7977C14.5617 24.6103 15.3946 23.5955 16.4631 22.8816C17.5317 22.1676 18.788 21.7865 20.0731 21.7865V21.7865ZM4.91162 6.625H48.2301V10.9569H4.91162V6.625Z" fill="#2E8096"/>
</svg>
