<svg width="53" height="53" viewBox="0 0 53 53" fill="none" xmlns="http://www.w3.org/2000/svg">
<path d="M7.02391 9.80409C9.53652 7.29103 12.9066 5.82114 16.4578 5.68938C20.009 5.55761 23.4787 6.77371 26.1707 9.09367C28.8602 6.77758 32.3253 5.56284 35.8723 5.69265C39.4193 5.82246 42.7864 7.28723 45.2994 9.79371C47.8125 12.3002 49.2861 15.6634 49.4251 19.21C49.5642 22.7567 48.3586 26.2249 46.0495 28.9205L29.2311 45.7931C28.4584 46.5661 27.4221 47.0184 26.3299 47.0594C25.2377 47.1003 24.1704 46.7269 23.342 46.014L23.1037 45.7953L6.28749 28.9205C3.97967 26.2273 2.77345 22.7622 2.90998 19.218C3.04651 15.6739 4.51573 12.3118 7.02391 9.80409V9.80409ZM10.0865 12.8667C8.31532 14.6384 7.29433 17.0241 7.23545 19.5286C7.17656 22.0331 8.08431 24.4641 9.7703 26.3171L10.0865 26.6507L26.1685 42.7327L37.6544 31.2446L29.9979 23.588L27.702 25.8839C27.0987 26.4875 26.3825 26.9663 25.5941 27.2931C24.8058 27.6198 23.9608 27.7881 23.1074 27.7883C21.384 27.7887 19.7309 27.1045 18.512 25.8861C17.293 24.6677 16.608 23.015 16.6076 21.2915C16.6072 19.5681 17.2914 17.915 18.5098 16.6961L23.0626 12.1411C21.2507 10.6951 18.9829 9.94204 16.6659 10.0171C14.349 10.0921 12.1346 10.9903 10.4201 12.5505L10.0865 12.8667V12.8667ZM28.4666 18.9919C28.8727 18.5859 29.4235 18.3578 29.9979 18.3578C30.5722 18.3578 31.123 18.5859 31.5292 18.9919L40.717 28.1798L42.2505 26.6507C44.0514 24.8511 45.0766 22.4183 45.107 19.8725C45.1374 17.3268 44.1704 14.8702 42.413 13.0282C40.6556 11.1862 38.2471 10.1049 35.7028 10.0156C33.1585 9.92633 30.6802 10.8361 28.7979 12.5505L28.4666 12.8667L21.5746 19.7587C21.1992 20.1339 20.9746 20.6338 20.9434 21.1636C20.9123 21.6935 21.0768 22.2163 21.4056 22.6329L21.5746 22.8213C21.9498 23.1967 22.4497 23.4213 22.9795 23.4525C23.5094 23.4836 24.0322 23.3191 24.4488 22.9902L24.6372 22.8213L28.4666 18.9919V18.9919Z" fill="#2E8096"/>
</svg>
