<svg width="53" height="53" viewBox="0 0 53 53" fill="none" xmlns="http://www.w3.org/2000/svg">
<path d="M44.3007 47.7794H9.6459C9.07146 47.7794 8.52055 47.5512 8.11436 47.1451C7.70817 46.7389 7.47997 46.188 7.47997 45.6135V6.62686C7.47997 6.05242 7.70817 5.50151 8.11436 5.09532C8.52055 4.68913 9.07146 4.46094 9.6459 4.46094H44.3007C44.8751 4.46094 45.4261 4.68913 45.8322 5.09532C46.2384 5.50151 46.4666 6.05242 46.4666 6.62686V45.6135C46.4666 46.188 46.2384 46.7389 45.8322 47.1451C45.4261 47.5512 44.8751 47.7794 44.3007 47.7794ZM42.1348 43.4476V8.79279H11.8118V43.4476H42.1348ZM16.1437 13.1246H24.8074V21.7883H16.1437V13.1246ZM16.1437 26.1202H37.8029V30.452H16.1437V26.1202ZM16.1437 34.7839H37.8029V39.1157H16.1437V34.7839ZM29.1392 15.2906H37.8029V19.6224H29.1392V15.2906Z" fill="#2E8096"/>
</svg>
