<svg width="162" height="170" viewBox="0 0 162 170" fill="none" xmlns="http://www.w3.org/2000/svg">
<path d="M31.5083 80.3891C36.103 80.3891 39.8278 76.6643 39.8278 72.0696C39.8278 67.4748 36.103 63.75 31.5083 63.75C26.9135 63.75 23.1887 67.4748 23.1887 72.0696C23.1887 76.6643 26.9135 80.3891 31.5083 80.3891Z" fill="black"/>
<path d="M57.3688 98.2566V106.351V106.452H103.659V106.351V98.2566C103.659 92.0044 98.5733 86.9219 92.3278 86.9219H80.5358C80.5291 86.9219 80.519 86.9252 80.519 86.9252L80.5022 86.9219H68.7103C62.4513 86.9219 57.3688 92.0077 57.3688 98.2566Z" fill="black"/>
<path d="M129.519 80.3891C134.114 80.3891 137.838 76.6643 137.838 72.0696C137.838 67.4748 134.114 63.75 129.519 63.75C124.924 63.75 121.199 67.4748 121.199 72.0696C121.199 76.6643 124.924 80.3891 129.519 80.3891Z" fill="black"/>
<path d="M80.5312 79.3976C86.565 79.3875 91.4693 74.4764 91.4693 68.4427C91.4693 62.3988 86.5515 57.4844 80.511 57.4844C74.4705 57.4844 69.5527 62.4022 69.5527 68.4427C69.5527 74.4764 74.4604 79.3875 80.4908 79.3976H80.5312Z" fill="black"/>
<path d="M13.1839 96.5775V102.628H49.837V98.2985V96.5775C49.837 91.8177 45.9646 87.9453 41.2082 87.9453H21.8194C17.0563 87.9453 13.1839 91.8177 13.1839 96.5775Z" fill="black"/>
<path d="M147.841 96.5775C147.841 91.8177 143.968 87.9453 139.212 87.9453H119.823C115.06 87.9453 111.191 91.8177 111.191 96.5775V98.2985V102.628H147.844V96.5775H147.841Z" fill="black"/>
<path d="M1.13285 79.1412C0.81351 81.6993 0.618548 84.2573 0.541235 86.7448C0.487453 88.6003 1.94632 90.1499 3.80183 90.2037C3.8388 90.2037 3.87242 90.2037 3.90603 90.2037C5.71448 90.2037 7.20696 88.765 7.2641 86.9431C7.33133 84.6641 7.51285 82.3178 7.80193 79.9682C12.6995 40.6864 47.719 12.363 86.7654 15.3076L82.8863 17.6472C81.2963 18.6085 80.7854 20.6724 81.7434 22.2624C82.7115 23.8591 84.7788 24.3566 86.3587 23.4053L98.3724 16.158C98.3959 16.1446 98.406 16.1177 98.4296 16.1043C100.369 14.8773 100.372 12.2722 99.0279 10.9176L89.2125 0.997974C87.9083 -0.323069 85.7771 -0.333153 84.4594 0.971083C83.1384 2.27868 83.1283 4.40311 84.4326 5.72415L87.2864 8.60826C44.6601 5.37456 6.47753 36.2796 1.13285 79.1412Z" fill="black"/>
<path d="M3.33791 130.504C3.63372 130.585 3.93288 130.625 4.22869 130.625C5.70436 130.625 7.05902 129.643 7.46911 128.151L8.56494 124.144C20.3905 148.511 44.0516 165.816 71.2691 169.207C74.6541 169.628 78.0323 169.839 81.3971 169.839C94.7017 169.839 107.727 166.559 119.559 160.175C121.193 159.295 121.805 157.254 120.921 155.621C120.04 153.99 117.993 153.378 116.369 154.259C102.783 161.59 87.4712 164.448 72.1061 162.538C47.2147 159.432 25.5637 143.637 14.6928 121.384L18.5719 123.526C20.2022 124.423 22.246 123.831 23.1368 122.208C24.0376 120.584 23.446 118.537 21.8191 117.64L9.53639 110.856C7.5834 109.787 5.21359 110.92 4.66904 112.91L0.981547 126.376C0.494139 128.168 1.54627 130.016 3.33791 130.504Z" fill="black"/>
<path d="M124.435 20.8901C122.858 19.8951 120.787 20.3624 119.796 21.9322C118.801 23.5019 119.268 25.576 120.838 26.5709C144.946 41.8419 158.247 69.9973 154.718 98.304C153.276 109.871 149.158 120.762 142.761 130.301L142.677 125.925C142.64 124.09 141.144 122.627 139.316 122.627C139.295 122.627 139.272 122.627 139.248 122.627C137.393 122.664 135.917 124.197 135.954 126.053L136.223 140.08C136.223 140.107 136.24 140.127 136.24 140.154C136.324 142.255 138.29 143.828 140.435 143.267L153.934 139.727C155.729 139.256 156.805 137.418 156.331 135.623C155.861 133.828 154.019 132.745 152.227 133.226L148.17 134.291C155.249 123.821 159.8 111.854 161.387 99.1342C165.236 68.2594 150.731 37.546 124.435 20.8901Z" fill="black"/>
</svg>
