<svg width="187" height="183" viewBox="0 0 187 183" fill="none" xmlns="http://www.w3.org/2000/svg">
<g clip-path="url(#clip0_639_6447)">
<path d="M102.173 50.3505H54.7882C49.0731 50.3505 44.4226 45.7 44.4226 39.9849V28.139C44.4226 22.4239 49.0731 17.7734 54.7882 17.7734H102.173C107.888 17.7734 112.539 22.4239 112.539 28.139V39.9849C112.539 45.7 107.888 50.3505 102.173 50.3505ZM54.7882 26.658C53.9725 26.658 53.3072 27.3233 53.3072 28.139V39.9849C53.3072 40.8006 53.9725 41.4659 54.7882 41.4659H102.173C102.989 41.4659 103.654 40.8006 103.654 39.9849V28.139C103.654 27.3233 102.989 26.658 102.173 26.658H54.7882Z" fill="black"/>
<path d="M90.3274 26.6544H66.635C64.1826 26.6544 62.1927 24.6644 62.1927 22.2121V16.2888C62.1927 7.30568 69.4983 0 78.4815 0C87.4646 0 94.7703 7.30568 94.7703 16.2888V22.2121C94.7703 24.6644 92.7797 26.6544 90.3274 26.6544ZM71.0772 17.7698H85.8851V16.2888C85.8851 12.2051 82.5652 8.88517 78.4815 8.88517C74.3977 8.88517 71.0778 12.2051 71.0778 16.2888L71.0772 17.7698Z" fill="black"/>
<path d="M137.711 109.579C135.259 109.579 133.269 107.589 133.269 105.137V45.9054C133.269 41.8217 129.949 38.5018 125.865 38.5018H108.096C105.644 38.5018 103.654 36.5118 103.654 34.0595C103.654 31.6072 105.644 29.6172 108.096 29.6172H125.865C134.848 29.6172 142.154 36.9229 142.154 45.906V105.137C142.154 107.589 140.163 109.579 137.711 109.579Z" fill="black"/>
<path d="M93.8209 174.734H31.0959C22.1127 174.734 14.8071 167.428 14.8071 158.445V45.906C14.8071 36.9229 22.1127 29.6172 31.0959 29.6172H48.865C51.3174 29.6172 53.3073 31.6072 53.3073 34.0595C53.3073 36.5118 51.3174 38.5018 48.865 38.5018H31.0959C27.0121 38.5018 23.6922 41.8217 23.6922 45.9054V158.444C23.6922 162.528 27.0121 165.848 31.0959 165.848H93.8203C96.2726 165.848 98.2626 167.838 98.2626 170.29C98.2626 172.743 96.2732 174.734 93.8209 174.734Z" fill="black"/>
<path d="M137.712 186.569C118.933 186.569 103.654 171.29 103.654 152.511C103.654 133.732 118.933 118.453 137.712 118.453C156.491 118.453 171.77 133.732 171.77 152.511C171.77 171.29 156.491 186.569 137.712 186.569ZM137.712 127.338C123.832 127.338 112.538 138.632 112.538 152.512C112.538 166.391 123.832 177.685 137.712 177.685C151.591 177.685 162.885 166.391 162.885 152.512C162.885 138.632 151.591 127.338 137.712 127.338Z" fill="black"/>
<path d="M141.9 161.145C140.763 161.145 139.626 160.711 138.759 159.844L134.571 155.656C133.737 154.823 133.269 153.692 133.269 152.515V140.669C133.269 138.217 135.259 136.227 137.712 136.227C140.164 136.227 142.154 138.217 142.154 140.669V150.676L145.04 153.562C146.775 155.297 146.775 158.109 145.04 159.844C144.172 160.711 143.036 161.145 141.9 161.145Z" fill="black"/>
<path d="M108.097 103.65H48.866C46.4137 103.65 44.4237 101.66 44.4237 99.2079C44.4237 96.7556 46.4137 94.7656 48.866 94.7656H108.097C110.549 94.7656 112.539 96.7556 112.539 99.2079C112.539 101.66 110.549 103.65 108.097 103.65Z" fill="black"/>
<path d="M54.788 103.646C52.3357 103.646 50.3457 101.656 50.3457 99.2037V81.4345C50.3457 78.9822 52.3357 76.9922 54.788 76.9922C57.2403 76.9922 59.2303 78.9822 59.2303 81.4345V99.2037C59.2303 101.656 57.2403 103.646 54.788 103.646Z" fill="black"/>
<path d="M78.4804 103.663C76.0281 103.663 74.0381 101.673 74.0381 99.2207V75.5282C74.0381 73.0759 76.0281 71.0859 78.4804 71.0859C80.9328 71.0859 82.9227 73.0759 82.9227 75.5282V99.2207C82.9227 101.673 80.9328 103.663 78.4804 103.663Z" fill="black"/>
<path d="M102.173 103.657C99.7206 103.657 97.7306 101.667 97.7306 99.215V63.6767C97.7306 61.2243 99.7206 59.2344 102.173 59.2344C104.625 59.2344 106.615 61.2243 106.615 63.6767V99.215C106.615 101.667 104.625 103.657 102.173 103.657Z" fill="black"/>
<path d="M48.8665 127.338H42.9432C40.4909 127.338 38.5009 125.348 38.5009 122.895C38.5009 120.443 40.4909 118.453 42.9432 118.453H48.8665C51.3188 118.453 53.3088 120.443 53.3088 122.895C53.3088 125.348 51.3188 127.338 48.8665 127.338Z" fill="black"/>
<path d="M96.2499 127.338H66.6342C64.1819 127.338 62.1919 125.348 62.1919 122.895C62.1919 120.443 64.1819 118.453 66.6342 118.453H96.2499C98.7022 118.453 100.692 120.443 100.692 122.895C100.692 125.348 98.7022 127.338 96.2499 127.338Z" fill="black"/>
<path d="M48.8665 151.025H42.9432C40.4909 151.025 38.5009 149.035 38.5009 146.583C38.5009 144.131 40.4909 142.141 42.9432 142.141H48.8665C51.3188 142.141 53.3088 144.131 53.3088 146.583C53.3088 149.035 51.3188 151.025 48.8665 151.025Z" fill="black"/>
<path d="M84.4049 151.025H66.6357C64.1834 151.025 62.1934 149.035 62.1934 146.583C62.1934 144.131 64.1834 142.141 66.6357 142.141H84.4049C86.8572 142.141 88.8472 144.131 88.8472 146.583C88.8472 149.035 86.8572 151.025 84.4049 151.025Z" fill="black"/>
</g>
<defs>
<clipPath id="clip0_639_6447">
<rect width="186.578" height="182.391" fill="white"/>
</clipPath>
</defs>
</svg>
