<svg width="171" height="183" viewBox="0 0 171 183" fill="none" xmlns="http://www.w3.org/2000/svg">
<g clip-path="url(#clip0_639_6465)">
<path d="M65.0004 86.1016C63.9985 86.1016 63.0191 86.4018 62.1861 86.9643C61.3531 87.5267 60.7038 88.3262 60.3204 89.2616C59.937 90.1969 59.8367 91.2262 60.0321 92.2191C60.2276 93.2121 60.71 94.1242 61.4185 94.8401C62.1269 95.556 63.0295 96.0435 64.0121 96.241C64.9948 96.4386 66.0133 96.3372 66.9389 95.9498C67.8645 95.5623 68.6557 94.9062 69.2123 94.0644C69.7689 93.2226 70.066 92.2329 70.066 91.2205C70.066 89.8629 69.5323 88.5608 68.5823 87.6009C67.6323 86.6409 66.3439 86.1016 65.0004 86.1016Z" fill="black"/>
<path d="M44.8324 86.102C44.1292 86.0331 43.4195 86.1136 42.749 86.3383C42.0784 86.5629 41.4617 86.9269 40.9386 87.4067C40.4155 87.8865 39.9975 88.4716 39.7114 89.1244C39.4254 89.7771 39.2776 90.4831 39.2776 91.197C39.2776 91.911 39.4254 92.617 39.7114 93.2697C39.9975 93.9225 40.4155 94.5076 40.9386 94.9874C41.4617 95.4672 42.0784 95.8312 42.749 96.0558C43.4195 96.2805 44.1292 96.361 44.8324 96.292C46.0853 96.1692 47.248 95.5794 48.0941 94.6375C48.9401 93.6956 49.4088 92.4691 49.4088 91.197C49.4088 89.925 48.9401 88.6985 48.0941 87.7566C47.248 86.8147 46.0853 86.2249 44.8324 86.102Z" fill="black"/>
<path d="M65.0003 106.54C63.7474 106.662 62.5847 107.252 61.7386 108.194C60.8926 109.136 60.4239 110.362 60.4239 111.635C60.4239 112.907 60.8926 114.133 61.7386 115.075C62.5847 116.017 63.7474 116.607 65.0003 116.73C65.7035 116.798 66.4132 116.718 67.0838 116.493C67.7543 116.269 68.371 115.905 68.8941 115.425C69.4172 114.945 69.8352 114.36 70.1213 113.707C70.4073 113.054 70.5551 112.348 70.5551 111.635C70.5551 110.921 70.4073 110.215 70.1213 109.562C69.8352 108.909 69.4172 108.324 68.8941 107.844C68.371 107.364 67.7543 107 67.0838 106.776C66.4132 106.551 65.7035 106.471 65.0003 106.54Z" fill="black"/>
<path d="M44.8328 106.539C43.8269 106.53 42.841 106.823 42.0008 107.382C41.1605 107.941 40.504 108.74 40.1147 109.677C39.7254 110.614 39.6211 111.648 39.8151 112.645C40.009 113.642 40.4924 114.559 41.2037 115.278C41.915 115.996 42.8219 116.485 43.8089 116.681C44.796 116.877 45.8184 116.771 46.7459 116.378C47.6734 115.985 48.4641 115.321 49.0171 114.472C49.5701 113.623 49.8604 112.627 49.851 111.61C49.851 110.265 49.3223 108.976 48.3812 108.025C47.4401 107.074 46.1637 106.539 44.8328 106.539Z" fill="black"/>
<path d="M65.0004 126.914C63.9985 126.914 63.0191 127.214 62.1861 127.777C61.3531 128.339 60.7038 129.139 60.3204 130.074C59.937 131.009 59.8367 132.039 60.0321 133.032C60.2276 134.025 60.71 134.937 61.4185 135.653C62.1269 136.368 63.0295 136.856 64.0121 137.054C64.9948 137.251 66.0133 137.15 66.9389 136.762C67.8645 136.375 68.6557 135.719 69.2123 134.877C69.7689 134.035 70.066 133.045 70.066 132.033C70.066 130.675 69.5323 129.373 68.5823 128.413C67.6323 127.453 66.3439 126.914 65.0004 126.914Z" fill="black"/>
<path d="M44.833 126.914C43.8291 126.905 42.8451 127.197 42.0059 127.754C41.1667 128.31 40.51 129.106 40.1194 130.041C39.7287 130.975 39.6216 132.006 39.8117 133.002C40.0017 133.998 40.4804 134.915 41.1869 135.636C41.8935 136.356 42.7959 136.849 43.7798 137.05C44.7637 137.251 45.7847 137.153 46.7131 136.767C47.6414 136.381 48.4354 135.725 48.9941 134.882C49.5529 134.039 49.8512 133.048 49.8512 132.033C49.8513 130.684 49.3241 129.389 48.3843 128.43C47.4446 127.472 46.1682 126.927 44.833 126.914Z" fill="black"/>
<path d="M143.305 96.0074C135.21 91.6162 125.741 90.5812 116.903 93.1215C108.066 95.6618 100.554 101.578 95.9577 109.618C91.3615 117.657 90.042 127.189 92.2786 136.194C94.5152 145.199 100.132 152.972 107.941 157.865C113.29 161.003 119.366 162.653 125.552 162.649C133.329 162.648 140.889 160.057 147.061 155.276C153.234 150.495 157.675 143.791 159.696 136.202C161.718 128.613 161.208 120.563 158.245 113.296C155.281 106.03 150.031 99.9536 143.305 96.0074ZM147.471 139.686C144.976 144.054 141.255 147.576 136.779 149.807C132.302 152.037 127.272 152.877 122.324 152.218C117.375 151.56 112.732 149.434 108.979 146.108C105.227 142.782 102.535 138.407 101.244 133.535C99.9522 128.663 100.12 123.514 101.724 118.738C103.329 113.963 106.3 109.775 110.26 106.705C114.22 103.636 118.992 101.822 123.972 101.493C128.953 101.164 133.918 102.335 138.239 104.858C144.033 108.24 148.261 113.809 149.992 120.34C151.723 126.871 150.816 133.83 147.471 139.686Z" fill="black"/>
<path d="M75.1313 152.478H24.6174C23.9521 152.478 23.2934 152.345 22.6788 152.088C22.0642 151.831 21.5058 151.454 21.0354 150.978C20.565 150.503 20.1919 149.939 19.9373 149.318C19.6828 148.697 19.5518 148.031 19.5518 147.359V70.8141H125.598C126.941 70.8141 128.23 70.2748 129.18 69.3148C130.13 68.3548 130.664 67.0528 130.664 65.6952V24.8873C130.663 22.8778 130.269 20.8883 129.506 19.0329C128.742 17.1775 127.623 15.4928 126.213 14.0754C124.819 12.6401 123.153 11.5025 121.315 10.73C119.477 9.95754 117.505 9.56593 115.514 9.57841H24.6174C22.6272 9.56863 20.6553 9.96148 18.8178 10.7338C16.9802 11.5061 15.3143 12.6423 13.918 14.0754C12.5084 15.4928 11.3896 17.1775 10.6259 19.0329C9.86227 20.8883 9.46872 22.8778 9.4679 24.8873V147.359C9.48038 151.415 11.0805 155.302 13.9189 158.17C16.7572 161.038 20.6033 162.655 24.6174 162.668H75.1313C76.3842 162.545 77.547 161.955 78.3931 161.013C79.2391 160.071 79.7078 158.845 79.7078 157.573C79.7078 156.301 79.2391 155.074 78.3931 154.132C77.547 153.19 76.3842 152.6 75.1313 152.478ZM21.0667 21.2993C22.0039 20.3354 23.2802 19.7851 24.6174 19.7684H115.514C116.854 19.7809 118.135 20.3242 119.082 21.2815C120.03 22.2388 120.567 23.5336 120.58 24.8873V60.6241H19.5518V24.8873C19.5547 24.2174 19.6903 23.5548 19.9505 22.9386C20.2107 22.3225 20.5902 21.7651 21.0667 21.2993Z" fill="black"/>
<path d="M125.598 116.727C124.935 116.727 124.278 116.859 123.666 117.117C123.054 117.375 122.499 117.753 122.032 118.229C121.566 118.705 121.197 119.269 120.948 119.89C120.698 120.511 120.573 121.176 120.579 121.845V132.035C120.511 132.746 120.591 133.463 120.813 134.141C121.036 134.818 121.396 135.442 121.871 135.97C122.345 136.499 122.924 136.921 123.57 137.21C124.216 137.499 124.915 137.649 125.621 137.649C126.328 137.649 127.027 137.499 127.672 137.21C128.318 136.921 128.897 136.499 129.372 135.97C129.847 135.442 130.207 134.818 130.43 134.141C130.652 133.463 130.732 132.746 130.663 132.035V121.845C130.663 120.488 130.13 119.186 129.18 118.226C128.23 117.266 126.941 116.727 125.598 116.727Z" fill="black"/>
</g>
<defs>
<clipPath id="clip0_639_6465">
<rect width="170.431" height="182.391" fill="white"/>
</clipPath>
</defs>
</svg>
