<svg width="168" height="171" viewBox="0 0 168 171" fill="none" xmlns="http://www.w3.org/2000/svg">
<path d="M94.3871 79.8088C96.7442 77.8627 98.4431 75.2365 99.2519 72.2888C100.061 69.3411 99.9398 66.2156 98.9058 63.3392C97.8718 60.4627 95.9751 57.9756 93.4748 56.2174C90.9744 54.4592 87.9923 53.5156 84.9356 53.5156C81.879 53.5156 78.8969 54.4592 76.3965 56.2174C73.8962 57.9756 71.9995 60.4627 70.9655 63.3392C69.9315 66.2156 69.8107 69.3411 70.6194 72.2888C71.4282 75.2365 73.1271 77.8627 75.4842 79.8088C62.3946 83.2811 62.3946 96.3122 62.3946 101.677V112.074C62.3946 112.954 62.744 113.797 63.3659 114.419C63.9878 115.041 64.8314 115.391 65.7109 115.391H104.16C105.04 115.391 105.883 115.041 106.505 114.419C107.127 113.797 107.477 112.954 107.477 112.074V101.677C107.496 96.3122 107.496 83.2811 94.3871 79.8088ZM84.9259 60.1841C86.5519 60.1802 88.1424 60.6591 89.4959 61.5601C90.8495 62.461 91.9052 63.7435 92.5292 65.2449C93.1532 66.7464 93.3175 68.3993 93.0012 69.9942C92.685 71.5891 91.9024 73.0543 90.7526 74.204C89.6029 75.3538 88.1377 76.1364 86.5428 76.4526C84.9479 76.7689 83.295 76.6046 81.7935 75.9806C80.292 75.3566 79.0096 74.3009 78.1086 72.9474C77.2077 71.5938 76.7288 70.0033 76.7327 68.3773C76.7378 66.2059 77.6027 64.1249 79.1381 62.5895C80.6735 61.0541 82.7545 60.1893 84.9259 60.1841ZM100.844 108.797H69.0272V101.677C69.0272 91.4743 71.2706 85.5635 82.6825 85.5635H87.0522C98.5422 85.5635 100.708 91.4158 100.708 101.677L100.844 108.797Z" fill="black"/>
<path d="M87.2869 0.967267C86.6653 0.347821 85.8235 0 84.946 0C84.0684 0 83.2267 0.347821 82.6051 0.967267L62.2977 21.2747C61.6742 21.8955 61.3229 22.7386 61.3211 23.6185C61.3193 24.4983 61.667 25.3428 62.2879 25.9663C62.9087 26.5897 63.7518 26.941 64.6317 26.9428C65.5115 26.9446 66.356 26.5969 66.9795 25.976L81.6297 11.3258V42.4405H88.2623V11.2283L102.893 25.8785C103.524 26.4949 104.372 26.8383 105.253 26.8344C106.129 26.8374 106.971 26.4938 107.594 25.8785C108.215 25.2536 108.563 24.4086 108.563 23.5278C108.563 22.6471 108.215 21.8021 107.594 21.1772L87.2869 0.967267Z" fill="black"/>
<path d="M102.893 144.753L88.2623 159.501V128.289H81.6297V159.501L66.9795 144.851C66.356 144.23 65.5115 143.882 64.6317 143.884C63.7518 143.886 62.9087 144.237 62.2879 144.861C61.667 145.484 61.3193 146.329 61.3211 147.209C61.3229 148.088 61.6742 148.932 62.2977 149.552L82.6051 169.762C83.2292 170.377 84.07 170.722 84.946 170.722C85.822 170.722 86.6628 170.377 87.2869 169.762L107.594 149.455C107.903 149.146 108.148 148.78 108.315 148.376C108.482 147.973 108.568 147.541 108.568 147.104C108.568 146.668 108.482 146.235 108.315 145.832C108.148 145.429 107.903 145.062 107.594 144.753C107.286 144.445 106.919 144.2 106.516 144.033C106.113 143.866 105.68 143.78 105.244 143.78C104.807 143.78 104.375 143.866 103.971 144.033C103.568 144.2 103.202 144.445 102.893 144.753Z" fill="black"/>
<path d="M26.3061 68.0451C26.6439 67.7449 26.9168 67.3788 27.108 66.9694C27.2992 66.5599 27.4047 66.1156 27.418 65.6639C27.4313 65.2121 27.3521 64.7624 27.1853 64.3424C27.0186 63.9224 26.7677 63.5409 26.4481 63.2213C26.1286 62.9018 25.747 62.6509 25.327 62.4841C24.907 62.3173 24.4573 62.2381 24.0056 62.2514C23.5538 62.2647 23.1096 62.3702 22.7001 62.5614C22.2906 62.7526 21.9245 63.0255 21.6243 63.3633L1.31686 83.6512C0.696218 84.2762 0.3479 85.1212 0.3479 86.0019C0.3479 86.8826 0.696218 87.7277 1.31686 88.3526L21.6633 108.64C21.9698 108.95 22.3344 109.195 22.7362 109.362C23.138 109.53 23.569 109.616 24.0042 109.616C24.4395 109.616 24.8704 109.53 25.2722 109.362C25.674 109.195 26.0386 108.95 26.3451 108.64C26.6566 108.335 26.904 107.971 27.0729 107.569C27.2418 107.167 27.3288 106.736 27.3288 106.3C27.3288 105.864 27.2418 105.432 27.0729 105.03C26.904 104.628 26.6566 104.264 26.3451 103.959L11.6754 89.2889H42.8876V82.6563H11.6754L26.3061 68.0451Z" fill="black"/>
<path d="M166.859 83.6512L146.513 63.3633C146.213 63.0255 145.847 62.7526 145.437 62.5614C145.028 62.3702 144.583 62.2647 144.132 62.2514C143.68 62.2381 143.23 62.3173 142.81 62.4841C142.39 62.6509 142.009 62.9018 141.689 63.2213C141.37 63.5409 141.119 63.9224 140.952 64.3424C140.785 64.7624 140.706 65.2121 140.719 65.6639C140.733 66.1156 140.838 66.5599 141.029 66.9694C141.22 67.3788 141.493 67.7449 141.831 68.0451L156.462 82.6954H125.25V89.2889H156.462L141.831 103.92C141.52 104.225 141.272 104.589 141.103 104.991C140.934 105.393 140.847 105.825 140.847 106.261C140.847 106.697 140.934 107.128 141.103 107.53C141.272 107.932 141.52 108.296 141.831 108.601C142.138 108.911 142.502 109.156 142.904 109.323C143.306 109.491 143.737 109.577 144.172 109.577C144.607 109.577 145.038 109.491 145.44 109.323C145.842 109.156 146.206 108.911 146.513 108.601L166.82 88.3136C167.434 87.6955 167.782 86.8616 167.79 85.9903C167.797 85.1191 167.463 84.2795 166.859 83.6512Z" fill="black"/>
</svg>
