<svg width="170" height="87" viewBox="0 0 170 87" fill="none" xmlns="http://www.w3.org/2000/svg">
<path d="M125.085 73.7927H124.386V74.4915H125.085V73.7927Z" fill="white"/>
<g clip-path="url(#clip0_2202_411)">
<path d="M95.7893 44.0971H95.1074L94.5858 43.6564C85.4886 35.9735 76.6452 35.9735 67.5479 43.6564L67.0264 44.0971H66.3445C62.9829 44.0971 59.9736 42.3595 58.2928 39.4488C56.612 36.538 56.612 33.0615 58.2928 30.1507L73.0159 4.64965C74.6967 1.73888 77.7072 0 81.0675 0C84.4291 0 87.4384 1.73762 89.1192 4.64965L103.842 30.1507C105.523 33.0615 105.523 36.5367 103.842 39.4475C102.16 42.3583 99.1496 44.0971 95.7893 44.0971ZM81.0662 3.73159C79.0533 3.73159 77.2513 4.77214 76.2449 6.51481L61.5231 32.0159C60.5166 33.7586 60.5166 35.8397 61.5231 37.5823C62.4222 39.1406 63.959 40.137 65.7131 40.3315C75.9039 32.0386 86.2299 32.0399 96.4207 40.3315C98.1747 40.1383 99.7103 39.1406 100.611 37.5823C101.617 35.8397 101.617 33.7586 100.611 32.0159L85.8864 6.51481C84.8812 4.77214 83.0792 3.73159 81.0662 3.73159Z" fill="black"/>
<path d="M81.066 61.4835C79.4445 61.4835 78.0226 60.5048 77.4443 58.9907L72.9941 47.3438V46.9991C72.9941 44.0908 76.237 42.136 81.066 42.136C85.895 42.136 89.1378 44.0908 89.1378 46.9991V47.3438L84.6877 58.9907C84.1093 60.5048 82.6874 61.4835 81.066 61.4835ZM76.8154 46.8905L80.9296 57.6584C80.9473 57.7051 80.965 57.7519 81.066 57.7519C81.1658 57.7519 81.1847 57.7039 81.2024 57.6584L85.3191 46.8842C84.9441 46.5217 83.4918 45.8663 81.0673 45.8663C78.6502 45.8676 77.2005 46.518 76.8154 46.8905Z" fill="black"/>
</g>
<g clip-path="url(#clip1_2202_411)">
<path d="M5.9258 86.8602H4.19278V76.1547H0V74.6313H10.1186V76.1547H5.9258V86.8602ZM23.0254 86.8602H21.2784V74.6313H26.0512C27.118 74.6313 28.0311 74.8013 28.7904 75.1414C29.5451 75.4768 30.1275 75.966 30.5374 76.6089C30.9427 77.2471 31.1454 78.0088 31.1454 78.894C31.1454 79.7791 30.9427 80.5385 30.5374 81.172C30.1275 81.8103 29.5451 82.2971 28.7904 82.6325C28.0311 82.9726 27.118 83.1426 26.0512 83.1426H22.2427L23.0254 82.339V86.8602ZM31.362 86.8602H29.4543L26.3447 82.4229H28.2174L31.362 86.8602ZM23.0254 75.2812V82.5137L22.2427 81.6542H25.9953C27.1133 81.6542 27.9612 81.412 28.5389 80.9275C29.1119 80.4476 29.3984 79.7698 29.3984 78.894C29.3984 78.0228 29.1119 77.3473 28.5389 76.8674C27.9612 76.3923 27.1133 76.1547 25.9953 76.1547H22.2427L23.0254 75.2812ZM48.3009 87C46.6983 87 45.4358 86.5411 44.5134 85.6234C43.5956 84.701 43.1368 83.3546 43.1368 81.5843V74.6313H44.8837V81.5144C44.8837 82.8794 45.1819 83.8764 45.7782 84.5053C46.3792 85.1342 47.227 85.4487 48.3218 85.4487C49.4306 85.4487 50.2831 85.1342 50.8794 84.5053C51.4804 83.8764 51.7809 82.8794 51.7809 81.5144V74.6313H53.479V81.5843C53.479 83.3546 53.0201 84.701 52.1023 85.6234C51.1892 86.5411 49.9221 87 48.3009 87ZM67.9091 81.3956V79.9072H74.1983V81.3956H67.9091ZM68.0629 76.1547V85.3439H75.1906V86.8602H66.3159V74.6313H74.946V76.1547H68.0629ZM88.9569 86.8602H87.2798V74.6313H88.7123L94.1979 83.8764H93.4292L98.8449 74.6313H100.277L100.298 86.8602H98.6143L98.6003 77.2727H99.0056L94.1839 85.3788H93.3733L88.5236 77.2727H88.9569V86.8602ZM118.747 87C117.815 87 116.948 86.8439 116.147 86.5318C115.35 86.215 114.661 85.7748 114.079 85.2111C113.496 84.6474 113.042 83.9859 112.716 83.2265C112.39 82.4718 112.227 81.6449 112.227 80.7458C112.227 79.8513 112.39 79.0244 112.716 78.265C113.042 77.5103 113.496 76.8488 114.079 76.2805C114.661 75.7168 115.348 75.2788 116.14 74.9667C116.932 74.6499 117.801 74.4915 118.747 74.4915C119.678 74.4915 120.536 74.6453 121.318 74.9527C122.105 75.2649 122.793 75.7028 123.38 76.2665C123.971 76.8302 124.426 77.4917 124.742 78.2511C125.064 79.0058 125.224 79.8373 125.224 80.7458C125.224 81.6542 125.064 82.4881 124.742 83.2475C124.426 84.0022 123.971 84.6614 123.38 85.2251C122.793 85.7934 122.105 86.2313 121.318 86.5388C120.536 86.8463 119.678 87 118.747 87ZM118.747 85.4487C119.417 85.4487 120.042 85.3322 120.619 85.0993C121.197 84.8663 121.698 84.5356 122.122 84.107C122.55 83.683 122.883 83.1869 123.121 82.6185C123.359 82.0455 123.477 81.4213 123.477 80.7458C123.477 80.0703 123.359 79.4483 123.121 78.88C122.883 78.307 122.55 77.8085 122.122 77.3846C121.698 76.9606 121.197 76.6322 120.619 76.3992C120.042 76.1663 119.417 76.0498 118.747 76.0498C118.057 76.0498 117.424 76.1663 116.846 76.3992C116.268 76.6322 115.765 76.9606 115.336 77.3846C114.903 77.8085 114.568 78.307 114.33 78.88C114.093 79.4483 113.974 80.0703 113.974 80.7458C113.974 81.4213 114.093 82.0455 114.33 82.6185C114.568 83.1869 114.903 83.683 115.336 84.107C115.765 84.5356 116.268 84.8663 116.846 85.0993C117.424 85.3322 118.057 85.4487 118.747 85.4487ZM140.717 87C139.785 87 138.895 86.8579 138.047 86.5737C137.195 86.2896 136.526 85.9192 136.042 85.4626L136.685 84.1C137.151 84.51 137.745 84.8477 138.467 85.1133C139.189 85.3835 139.939 85.5186 140.717 85.5186C141.43 85.5186 142.007 85.437 142.45 85.274C142.892 85.1109 143.218 84.885 143.428 84.5961C143.638 84.312 143.743 83.9905 143.743 83.6318C143.743 83.2125 143.605 82.8748 143.33 82.6185C143.06 82.3623 142.706 82.155 142.268 81.9966C141.83 81.8382 141.35 81.7008 140.829 81.5843C140.302 81.4679 139.773 81.3304 139.242 81.172C138.711 81.0183 138.229 80.818 137.796 80.5711C137.358 80.3288 137.006 80.0004 136.741 79.5858C136.47 79.1711 136.335 78.6377 136.335 77.9855C136.335 77.3566 136.501 76.7766 136.831 76.2455C137.167 75.7191 137.679 75.2951 138.369 74.9737C139.063 74.6523 139.946 74.4915 141.017 74.4915C141.73 74.4915 142.436 74.5847 143.135 74.7711C143.833 74.9574 144.439 75.2253 144.952 75.5747L144.372 76.9723C143.845 76.6229 143.291 76.369 142.708 76.2106C142.126 76.0568 141.562 75.98 141.017 75.98C140.332 75.98 139.766 76.0662 139.319 76.2385C138.881 76.4156 138.56 76.6485 138.355 76.9373C138.15 77.2308 138.047 77.5569 138.047 77.9156C138.047 78.3489 138.185 78.6936 138.46 78.9499C138.73 79.2061 139.084 79.4087 139.522 79.5578C139.96 79.7115 140.44 79.849 140.961 79.9701C141.488 80.0912 142.017 80.2287 142.548 80.3824C143.074 80.5315 143.556 80.7295 143.994 80.9764C144.432 81.2186 144.786 81.5447 145.056 81.9547C145.322 82.36 145.455 82.8841 145.455 83.527C145.455 84.1419 145.287 84.7149 144.952 85.246C144.611 85.7771 144.09 86.201 143.386 86.5178C142.683 86.8393 141.793 87 140.717 87ZM162.785 87C161.853 87 160.989 86.8439 160.192 86.5318C159.396 86.215 158.706 85.7748 158.124 85.2111C157.542 84.6474 157.087 83.9859 156.761 83.2265C156.43 82.4718 156.265 81.6449 156.265 80.7458C156.265 79.8513 156.43 79.0244 156.761 78.265C157.087 77.5103 157.542 76.8488 158.124 76.2805C158.706 75.7168 159.393 75.2788 160.185 74.9667C160.977 74.6499 161.844 74.4915 162.785 74.4915C163.717 74.4915 164.576 74.6453 165.363 74.9527C166.151 75.2649 166.838 75.7028 167.425 76.2665C168.012 76.8302 168.466 77.4917 168.787 78.2511C169.109 79.0058 169.27 79.8373 169.27 80.7458C169.27 81.6542 169.109 82.4881 168.787 83.2475C168.466 84.0022 168.012 84.6614 167.425 85.2251C166.838 85.7934 166.151 86.2313 165.363 86.5388C164.576 86.8463 163.717 87 162.785 87ZM162.785 85.4487C163.46 85.4487 164.087 85.3322 164.665 85.0993C165.238 84.8663 165.738 84.5356 166.167 84.107C166.591 83.683 166.922 83.1869 167.159 82.6185C167.402 82.0455 167.523 81.4213 167.523 80.7458C167.523 80.0703 167.402 79.4483 167.159 78.88C166.922 78.307 166.591 77.8085 166.167 77.3846C165.738 76.9606 165.238 76.6322 164.665 76.3992C164.087 76.1663 163.46 76.0498 162.785 76.0498C162.1 76.0498 161.469 76.1663 160.891 76.3992C160.313 76.6322 159.81 76.9606 159.382 77.3846C158.948 77.8085 158.613 78.307 158.375 78.88C158.133 79.4483 158.012 80.0703 158.012 80.7458C158.012 81.4213 158.133 82.0455 158.375 82.6185C158.613 83.1869 158.948 83.683 159.382 84.107C159.81 84.5356 160.313 84.8663 160.891 85.0993C161.469 85.3322 162.1 85.4487 162.785 85.4487Z" fill="black"/>
</g>
<defs>
<clipPath id="clip0_2202_411">
<rect width="48.0706" height="61.4834" fill="white" transform="translate(57.0322)"/>
</clipPath>
<clipPath id="clip1_2202_411">
<rect width="169.27" height="12.5085" fill="white" transform="translate(0 74.4915)"/>
</clipPath>
</defs>
</svg>
